<?xml version="1.0" encoding="iso-8859-1"?>
<!-- Generator: Adobe Illustrator 19.0.0, SVG Export Plug-In . SVG Version: 6.00 Build 0)  -->
<svg version="1.1" id="Layer_1" xmlns="http://www.w3.org/2000/svg" xmlns:xlink="http://www.w3.org/1999/xlink" x="0px" y="0px"
	 viewBox="0 0 480 480" style="enable-background:new 0 0 480 480;" xml:space="preserve">
<g transform="translate(0 -540.36)">
	<path style="fill:#913D88;" d="M24,630.36h432c13.296,0,24,10.704,24,24v252c0,13.296-10.704,24-24,24H24
		c-13.296,0-24-10.704-24-24v-252C0,641.064,10.704,630.36,24,630.36z"/>
	<g>
		<path style="fill:#662B5F;" d="M75.242,863.2c0-1.823-0.173-3.105-0.518-3.848c-0.339-0.749-0.911-1.123-1.719-1.123
			c-0.807,0-1.383,0.374-1.729,1.123c-0.345,0.742-0.518,2.025-0.518,3.848c0,1.842,0.173,3.141,0.518,3.896
			c0.345,0.755,0.921,1.133,1.729,1.133c0.801,0,1.374-0.378,1.719-1.133C75.07,866.341,75.242,865.042,75.242,863.2z
			 M79.002,863.229c0,2.415-0.521,4.281-1.563,5.596c-1.042,1.309-2.52,1.963-4.434,1.963c-1.921,0-3.402-0.654-4.443-1.963
			c-1.042-1.315-1.563-3.18-1.563-5.596c0-2.422,0.521-4.287,1.563-5.596c1.042-1.315,2.523-1.973,4.443-1.973
			c1.914,0,3.392,0.658,4.434,1.973C78.481,858.942,79.002,860.807,79.002,863.229z"/>
		<path style="fill:#662B5F;" d="M82.068,855.924h9.346v2.764h-6.348v2.256c0.286-0.078,0.573-0.137,0.859-0.176
			c0.293-0.046,0.596-0.068,0.908-0.068c1.777,0,3.161,0.446,4.15,1.338c0.99,0.885,1.484,2.122,1.484,3.711
			c0,1.576-0.54,2.809-1.621,3.701c-1.074,0.892-2.568,1.338-4.482,1.338c-0.827,0-1.647-0.081-2.461-0.244
			c-0.807-0.156-1.611-0.397-2.412-0.723v-2.959c0.794,0.456,1.546,0.798,2.256,1.025c0.716,0.228,1.39,0.342,2.021,0.342
			c0.911,0,1.628-0.221,2.148-0.664c0.527-0.449,0.791-1.055,0.791-1.816c0-0.768-0.264-1.374-0.791-1.816
			c-0.521-0.443-1.237-0.664-2.148-0.664c-0.54,0-1.117,0.072-1.729,0.215c-0.612,0.137-1.27,0.352-1.973,0.645V855.924
			L82.068,855.924z"/>
		<path style="fill:#662B5F;" d="M105.945,855.924h2.168l-5.146,16.436h-2.158L105.945,855.924z"/>
		<path style="fill:#662B5F;" d="M117.41,867.907h3.32v-9.424l-3.408,0.703v-2.559l3.389-0.703h3.574v11.982h3.32v2.598H117.41
			V867.907z"/>
		<path style="fill:#662B5F;" d="M138.289,862.643c0.983,0.254,1.729,0.697,2.236,1.328c0.514,0.625,0.771,1.423,0.771,2.393
			c0,1.445-0.553,2.546-1.66,3.301c-1.107,0.749-2.721,1.123-4.844,1.123c-0.749,0-1.501-0.062-2.256-0.186
			c-0.749-0.117-1.491-0.296-2.227-0.537v-2.9c0.703,0.352,1.4,0.619,2.09,0.801c0.697,0.176,1.38,0.264,2.051,0.264
			c0.996,0,1.758-0.172,2.285-0.518c0.534-0.345,0.801-0.84,0.801-1.484c0-0.664-0.273-1.165-0.82-1.504
			c-0.54-0.345-1.341-0.518-2.402-0.518h-1.504v-2.422h1.582c0.944,0,1.647-0.146,2.109-0.439c0.462-0.299,0.693-0.752,0.693-1.357
			c0-0.56-0.225-0.993-0.674-1.299c-0.449-0.306-1.084-0.459-1.904-0.459c-0.605,0-1.217,0.068-1.836,0.205
			c-0.618,0.137-1.234,0.339-1.846,0.605v-2.754c0.742-0.208,1.478-0.365,2.207-0.469c0.729-0.104,1.445-0.156,2.148-0.156
			c1.895,0,3.311,0.313,4.248,0.938c0.944,0.619,1.416,1.553,1.416,2.803c0,0.853-0.225,1.553-0.674,2.1
			C139.832,862.041,139.168,862.422,138.289,862.643z"/>
		<path style="fill:#662B5F;" d="M150.916,863.327h6.133v2.842h-6.133V863.327z"/>
		<path style="fill:#662B5F;" d="M174.305,863.2c0-1.823-0.173-3.105-0.518-3.848c-0.339-0.749-0.911-1.123-1.719-1.123
			c-0.807,0-1.383,0.374-1.729,1.123c-0.345,0.742-0.518,2.025-0.518,3.848c0,1.842,0.173,3.141,0.518,3.896
			c0.345,0.755,0.921,1.133,1.729,1.133c0.801,0,1.374-0.378,1.719-1.133C174.132,866.341,174.305,865.042,174.305,863.2z
			 M178.064,863.229c0,2.415-0.521,4.281-1.563,5.596c-1.042,1.309-2.52,1.963-4.434,1.963c-1.921,0-3.402-0.654-4.443-1.963
			c-1.042-1.315-1.563-3.18-1.563-5.596c0-2.422,0.521-4.287,1.563-5.596c1.042-1.315,2.523-1.973,4.443-1.973
			c1.914,0,3.392,0.658,4.434,1.973C177.544,858.942,178.064,860.807,178.064,863.229z"/>
		<path style="fill:#662B5F;" d="M181.131,855.924h9.346v2.764h-6.348v2.256c0.286-0.078,0.573-0.137,0.859-0.176
			c0.293-0.046,0.596-0.068,0.908-0.068c1.777,0,3.161,0.446,4.15,1.338c0.99,0.885,1.484,2.122,1.484,3.711
			c0,1.576-0.54,2.809-1.621,3.701c-1.074,0.892-2.568,1.338-4.482,1.338c-0.827,0-1.647-0.081-2.461-0.244
			c-0.807-0.156-1.611-0.397-2.412-0.723v-2.959c0.794,0.456,1.546,0.798,2.256,1.025c0.716,0.228,1.39,0.342,2.021,0.342
			c0.911,0,1.628-0.221,2.148-0.664c0.527-0.449,0.791-1.055,0.791-1.816c0-0.768-0.264-1.374-0.791-1.816
			c-0.521-0.443-1.237-0.664-2.148-0.664c-0.54,0-1.117,0.072-1.729,0.215c-0.612,0.137-1.27,0.352-1.973,0.645L181.131,855.924
			L181.131,855.924z"/>
		<path style="fill:#662B5F;" d="M205.008,855.924h2.168l-5.146,16.436h-2.158L205.008,855.924z"/>
		<path style="fill:#662B5F;" d="M216.473,867.907h3.32v-9.424l-3.408,0.703v-2.559l3.389-0.703h3.574v11.982h3.32v2.598h-10.195
			V867.907z"/>
		<path style="fill:#662B5F;" d="M234.998,863.981c-0.703,0-1.243,0.192-1.621,0.576c-0.378,0.384-0.566,0.934-0.566,1.65
			c0,0.716,0.189,1.266,0.566,1.65c0.378,0.378,0.918,0.566,1.621,0.566c0.697,0,1.23-0.189,1.602-0.566
			c0.371-0.384,0.557-0.934,0.557-1.65c0-0.723-0.186-1.273-0.557-1.65C236.229,864.173,235.695,863.981,234.998,863.981z
			 M232.254,862.741c-0.885-0.267-1.553-0.677-2.002-1.23c-0.449-0.553-0.674-1.243-0.674-2.07c0-1.23,0.459-2.168,1.377-2.813
			s2.266-0.967,4.043-0.967c1.764,0,3.105,0.322,4.023,0.967c0.918,0.638,1.377,1.576,1.377,2.813c0,0.827-0.228,1.517-0.684,2.07
			c-0.449,0.553-1.117,0.964-2.002,1.23c0.99,0.273,1.735,0.719,2.236,1.338c0.508,0.612,0.762,1.387,0.762,2.324
			c0,1.445-0.482,2.539-1.445,3.281c-0.957,0.736-2.38,1.104-4.268,1.104c-1.895,0-3.327-0.368-4.297-1.104
			c-0.964-0.742-1.445-1.836-1.445-3.281c0-0.938,0.251-1.712,0.752-2.324C230.516,863.46,231.264,863.014,232.254,862.741z
			 M233.133,859.821c0,0.579,0.16,1.025,0.479,1.338c0.326,0.313,0.788,0.469,1.387,0.469c0.586,0,1.038-0.156,1.357-0.469
			c0.319-0.313,0.479-0.758,0.479-1.338c0-0.579-0.16-1.022-0.479-1.328c-0.319-0.313-0.771-0.469-1.357-0.469
			c-0.599,0-1.061,0.156-1.387,0.469C233.292,858.805,233.133,859.248,233.133,859.821z"/>
		<path style="fill:#662B5F;" d="M33.577,785.349h13.552v2.905H36.738v6.255c0.501-0.171,1.003-0.296,1.504-0.376
			c0.501-0.091,1.003-0.137,1.504-0.137c2.848,0,5.104,0.78,6.768,2.341c1.663,1.561,2.495,3.674,2.495,6.34
			c0,2.746-0.854,4.882-2.563,6.409c-1.709,1.515-4.119,2.273-7.229,2.273c-1.071,0-2.165-0.091-3.281-0.273
			c-1.105-0.182-2.25-0.456-3.435-0.82v-3.469c1.025,0.558,2.085,0.974,3.179,1.248c1.094,0.273,2.25,0.41,3.469,0.41
			c1.971,0,3.532-0.518,4.683-1.555c1.151-1.037,1.726-2.444,1.726-4.221c0-1.777-0.575-3.184-1.726-4.221
			c-1.151-1.037-2.712-1.555-4.683-1.555c-0.923,0-1.846,0.103-2.769,0.308c-0.911,0.205-1.846,0.524-2.803,0.957
			C33.577,798.167,33.577,785.349,33.577,785.349z"/>
		<path style="fill:#662B5F;" d="M65.312,788.357l-8.716,13.621h8.716V788.357z M64.407,785.349h4.341v16.628h3.64v2.871h-3.64
			v6.016h-3.435v-6.016H53.794v-3.333L64.407,785.349z"/>
		<path style="fill:#662B5F;" d="M78.147,785.349h13.552v2.905H81.309v6.255c0.501-0.171,1.003-0.296,1.504-0.376
			c0.501-0.091,1.003-0.137,1.504-0.137c2.848,0,5.104,0.78,6.768,2.341c1.663,1.561,2.495,3.674,2.495,6.34
			c0,2.746-0.854,4.882-2.563,6.409c-1.709,1.515-4.119,2.273-7.229,2.273c-1.071,0-2.165-0.091-3.281-0.273
			c-1.105-0.182-2.25-0.456-3.435-0.82v-3.469c1.025,0.558,2.085,0.974,3.179,1.248c1.094,0.273,2.25,0.41,3.469,0.41
			c1.971,0,3.532-0.518,4.683-1.555c1.151-1.037,1.726-2.444,1.726-4.221s-0.575-3.184-1.726-4.221
			c-1.151-1.037-2.712-1.555-4.683-1.555c-0.923,0-1.846,0.103-2.769,0.308c-0.911,0.205-1.846,0.524-2.803,0.957
			C78.147,798.167,78.147,785.349,78.147,785.349z"/>
		<path style="fill:#662B5F;" d="M103.372,807.959h12.048v2.905H99.219v-2.905c1.31-1.356,3.093-3.173,5.349-5.452
			c2.267-2.29,3.691-3.765,4.272-4.426c1.105-1.242,1.874-2.29,2.307-3.145c0.444-0.866,0.666-1.715,0.666-2.546
			c0-1.356-0.479-2.461-1.436-3.315c-0.946-0.854-2.182-1.282-3.708-1.282c-1.082,0-2.227,0.188-3.435,0.564
			c-1.196,0.376-2.478,0.946-3.845,1.709v-3.486c1.39-0.558,2.689-0.98,3.896-1.265c1.208-0.285,2.313-0.427,3.315-0.427
			c2.643,0,4.751,0.661,6.323,1.982c1.572,1.322,2.358,3.088,2.358,5.298c0,1.048-0.199,2.045-0.598,2.991
			c-0.387,0.934-1.099,2.039-2.136,3.315c-0.285,0.33-1.191,1.287-2.717,2.871C108.305,802.918,106.151,805.122,103.372,807.959
			L103.372,807.959z"/>
		<path style="fill:#662B5F;" d="M147.942,807.959h12.048v2.905h-16.201v-2.905c1.31-1.356,3.093-3.173,5.349-5.452
			c2.267-2.29,3.691-3.765,4.272-4.426c1.105-1.242,1.874-2.29,2.307-3.145c0.444-0.866,0.666-1.715,0.667-2.546
			c0-1.356-0.479-2.461-1.436-3.315c-0.946-0.854-2.182-1.282-3.708-1.282c-1.082,0-2.227,0.188-3.435,0.564
			c-1.196,0.376-2.478,0.946-3.845,1.709v-3.486c1.39-0.558,2.689-0.98,3.896-1.265c1.208-0.285,2.313-0.427,3.315-0.427
			c2.643,0,4.751,0.661,6.323,1.982c1.572,1.322,2.358,3.088,2.358,5.298c0,1.048-0.199,2.045-0.598,2.991
			c-0.387,0.934-1.099,2.039-2.136,3.315c-0.285,0.33-1.191,1.287-2.717,2.871C152.875,802.918,150.722,805.122,147.942,807.959
			L147.942,807.959z"/>
		<path style="fill:#662B5F;" d="M166.382,785.349h16.406v1.47l-9.263,24.045h-3.606l8.716-22.61h-12.253V785.349z"/>
		<path style="fill:#662B5F;" d="M189.573,785.349h13.552v2.905h-10.391v6.255c0.501-0.171,1.003-0.296,1.504-0.376
			c0.501-0.091,1.003-0.137,1.504-0.137c2.848,0,5.104,0.78,6.768,2.341c1.663,1.561,2.495,3.674,2.495,6.34
			c0,2.746-0.854,4.882-2.563,6.409c-1.709,1.515-4.119,2.273-7.229,2.273c-1.071,0-2.165-0.091-3.281-0.273
			c-1.105-0.182-2.25-0.456-3.435-0.82v-3.469c1.025,0.558,2.085,0.974,3.179,1.248s2.25,0.41,3.469,0.41
			c1.971,0,3.532-0.518,4.683-1.555c1.151-1.037,1.726-2.444,1.726-4.221s-0.575-3.184-1.726-4.221
			c-1.151-1.037-2.712-1.555-4.683-1.555c-0.923,0-1.846,0.103-2.769,0.308c-0.911,0.205-1.846,0.524-2.803,0.957L189.573,785.349
			L189.573,785.349z"/>
		<path style="fill:#662B5F;" d="M214.797,807.959h12.048v2.905h-16.201v-2.905c1.31-1.356,3.093-3.173,5.349-5.452
			c2.267-2.29,3.691-3.765,4.272-4.426c1.105-1.242,1.874-2.29,2.307-3.145c0.444-0.866,0.666-1.715,0.667-2.546
			c0-1.356-0.479-2.461-1.436-3.315c-0.946-0.854-2.182-1.282-3.708-1.282c-1.082,0-2.227,0.188-3.435,0.564
			c-1.196,0.376-2.478,0.946-3.845,1.709v-3.486c1.39-0.558,2.689-0.98,3.896-1.265c1.208-0.285,2.313-0.427,3.315-0.427
			c2.643,0,4.751,0.661,6.323,1.982c1.572,1.322,2.358,3.088,2.358,5.298c0,1.048-0.199,2.045-0.598,2.991
			c-0.387,0.934-1.099,2.039-2.136,3.315c-0.285,0.33-1.191,1.287-2.717,2.871C219.731,802.918,217.577,805.122,214.797,807.959z"/>
		<path style="fill:#662B5F;" d="M263.777,787.622c-1.777,0-3.116,0.877-4.016,2.632c-0.889,1.743-1.333,4.369-1.333,7.878
			c0,3.498,0.444,6.124,1.333,7.878c0.9,1.743,2.239,2.615,4.016,2.615c1.789,0,3.127-0.872,4.016-2.615
			c0.9-1.755,1.35-4.381,1.35-7.878c0-3.509-0.45-6.135-1.35-7.878C266.904,788.499,265.566,787.622,263.777,787.622z
			 M263.777,784.888c2.86,0,5.042,1.134,6.545,3.401c1.515,2.256,2.273,5.537,2.273,9.844c0,4.295-0.758,7.577-2.273,9.844
			c-1.504,2.256-3.686,3.384-6.545,3.384c-2.86,0-5.047-1.128-6.563-3.384c-1.504-2.267-2.256-5.548-2.256-9.844
			c0-4.307,0.752-7.588,2.256-9.844C258.73,786.021,260.917,784.888,263.777,784.888z"/>
		<path style="fill:#662B5F;" d="M286.062,787.622c-1.777,0-3.116,0.877-4.016,2.632c-0.889,1.743-1.333,4.369-1.333,7.878
			c0,3.498,0.444,6.124,1.333,7.878c0.9,1.743,2.239,2.615,4.016,2.615c1.789,0,3.127-0.872,4.016-2.615
			c0.9-1.755,1.35-4.381,1.35-7.878c0-3.509-0.45-6.135-1.35-7.878C289.189,788.499,287.851,787.622,286.062,787.622z
			 M286.062,784.888c2.86,0,5.042,1.134,6.545,3.401c1.515,2.256,2.273,5.537,2.273,9.844c0,4.295-0.758,7.577-2.273,9.844
			c-1.504,2.256-3.686,3.384-6.545,3.384c-2.86,0-5.047-1.128-6.563-3.384c-1.504-2.267-2.256-5.548-2.256-9.844
			c0-4.307,0.752-7.588,2.256-9.844C281.015,786.021,283.202,784.888,286.062,784.888z"/>
		<path style="fill:#662B5F;" d="M308.347,787.622c-1.777,0-3.116,0.877-4.016,2.632c-0.889,1.743-1.333,4.369-1.333,7.878
			c0,3.498,0.444,6.124,1.333,7.878c0.9,1.743,2.239,2.615,4.016,2.615c1.789,0,3.127-0.872,4.016-2.615
			c0.9-1.755,1.35-4.381,1.35-7.878c0-3.509-0.45-6.135-1.35-7.878C311.475,788.499,310.136,787.622,308.347,787.622z
			 M308.347,784.888c2.86,0,5.042,1.134,6.545,3.401c1.515,2.256,2.273,5.537,2.273,9.844c0,4.295-0.758,7.577-2.273,9.844
			c-1.504,2.256-3.686,3.384-6.545,3.384c-2.86,0-5.047-1.128-6.563-3.384c-1.504-2.267-2.256-5.548-2.256-9.844
			c0-4.307,0.752-7.588,2.256-9.844C303.3,786.021,305.487,784.888,308.347,784.888z"/>
		<path style="fill:#662B5F;" d="M322.378,785.349h16.406v1.47l-9.263,24.045h-3.606l8.716-22.61h-12.253V785.349z"/>
		<path style="fill:#662B5F;" d="M375.63,796.731c-1.549,0-2.78,0.53-3.691,1.589c-0.9,1.06-1.35,2.512-1.35,4.358
			c0,1.834,0.45,3.287,1.35,4.358c0.911,1.06,2.142,1.589,3.691,1.589c1.549,0,2.774-0.53,3.674-1.589
			c0.911-1.071,1.367-2.524,1.367-4.358c0-1.846-0.456-3.298-1.367-4.358C378.404,797.261,377.179,796.731,375.63,796.731z
			 M382.483,785.913v3.145c-0.866-0.41-1.743-0.723-2.632-0.94c-0.877-0.216-1.749-0.325-2.615-0.325
			c-2.279,0-4.022,0.769-5.229,2.307c-1.196,1.538-1.88,3.862-2.051,6.973c0.672-0.991,1.515-1.749,2.529-2.273
			c1.014-0.535,2.131-0.803,3.35-0.803c2.563,0,4.586,0.78,6.067,2.341c1.492,1.549,2.239,3.663,2.239,6.34
			c0,2.62-0.775,4.723-2.324,6.306c-1.549,1.584-3.612,2.375-6.187,2.375c-2.951,0-5.207-1.128-6.768-3.384
			c-1.561-2.267-2.341-5.548-2.341-9.844c0-4.033,0.957-7.246,2.871-9.639c1.914-2.404,4.483-3.606,7.708-3.606
			c0.866,0,1.737,0.085,2.615,0.256C380.603,785.315,381.526,785.571,382.483,785.913z"/>
		<path style="fill:#662B5F;" d="M389.233,785.349h16.406v1.47l-9.263,24.045h-3.606l8.716-22.61h-12.253V785.349z"/>
		<path style="fill:#662B5F;" d="M412.493,810.335v-3.145c0.866,0.41,1.743,0.724,2.632,0.94c0.889,0.216,1.76,0.325,2.615,0.325
			c2.279,0,4.016-0.763,5.212-2.29c1.208-1.538,1.897-3.868,2.068-6.99c-0.661,0.98-1.498,1.732-2.512,2.256
			c-1.014,0.524-2.136,0.786-3.367,0.786c-2.552,0-4.574-0.769-6.067-2.307c-1.481-1.549-2.222-3.663-2.222-6.34
			c0-2.62,0.775-4.722,2.324-6.306c1.549-1.584,3.612-2.375,6.187-2.375c2.951,0,5.201,1.134,6.75,3.401
			c1.561,2.256,2.341,5.537,2.341,9.844c0,4.022-0.957,7.235-2.871,9.639c-1.903,2.393-4.466,3.589-7.69,3.589
			c-0.866,0-1.743-0.085-2.632-0.256S413.45,810.676,412.493,810.335z M419.363,799.517c1.549,0,2.774-0.53,3.674-1.589
			c0.911-1.06,1.367-2.512,1.367-4.358c0-1.834-0.456-3.281-1.367-4.341c-0.9-1.071-2.125-1.606-3.674-1.606
			c-1.549,0-2.78,0.536-3.691,1.606c-0.9,1.06-1.35,2.507-1.35,4.341c0,1.846,0.45,3.298,1.35,4.358
			C416.583,798.987,417.813,799.517,419.363,799.517z"/>
		<path style="fill:#662B5F;" d="M435.273,807.959h5.64v-19.465l-6.135,1.23v-3.145l6.101-1.23h3.452v22.61h5.64v2.905h-14.697
			V807.959z"/>
	</g>
	<g>
		<path style="fill:#EBCA3D;" d="M44.001,721.61v9.625h20.273v-9.625C64.274,721.61,44.001,721.61,44.001,721.61z"/>
		<path style="fill:#EBCA3D;" d="M67.524,721.61v9.625h23.469v-9.625H67.524z"/>
		<path style="fill:#EBCA3D;" d="M94.243,721.61v9.625h20.258v-9.625C114.501,721.61,94.243,721.61,94.243,721.61z"/>
		<path style="fill:#EBCA3D;" d="M44.001,734.485v9.625h20.273v-9.625C64.274,734.485,44.001,734.485,44.001,734.485z"/>
		<path style="fill:#EBCA3D;" d="M67.524,734.485v9.625h23.469v-9.625H67.524z"/>
		<path style="fill:#EBCA3D;" d="M94.243,734.485v9.625h20.258v-9.625C114.501,734.485,94.243,734.485,94.243,734.485z"/>
		<path style="fill:#EBCA3D;" d="M55.998,699.36c-6.646,0-11.998,5.359-11.998,12.018v6.982h33.928l-14.711-19H55.998z"/>
		<path style="fill:#EBCA3D;" d="M95.709,699.36l-14.32,19H114.5v-6.982c0-6.658-5.352-12.018-11.998-12.018H95.709z"/>
		<path style="fill:#EBCA3D;" d="M67.079,699.36l12.422,16.5l12.34-16.487L67.079,699.36z"/>
		<path style="fill:#EBCA3D;" d="M55.998,766.36c-6.646,0-11.998-5.359-11.998-12.018v-6.982h33.928l-14.711,19H55.998z"/>
		<path style="fill:#EBCA3D;" d="M95.709,766.36l-14.32-19H114.5v6.982c0,6.658-5.352,12.018-11.998,12.018H95.709z"/>
		<path style="fill:#EBCA3D;" d="M67.057,766.316l12.444-16.456l12.34,16.487L67.057,766.316z"/>
	</g>
	<path style="fill:#E74C3C;" d="M409,873.86c0,20.711-16.789,37.5-37.5,37.5l0,0c-20.711,0-37.5-16.789-37.5-37.5l0,0
		c0-20.711,16.789-37.5,37.5-37.5l0,0C392.211,836.36,409,853.149,409,873.86L409,873.86z"/>
	<path style="fill:#FCD116;" d="M458.875,873.86c0,20.711-16.789,37.5-37.5,37.5l0,0c-20.711,0-37.5-16.789-37.5-37.5l0,0
		c0-20.711,16.789-37.5,37.5-37.5l0,0C442.086,836.36,458.875,853.149,458.875,873.86L458.875,873.86z"/>
	<g transform="translate(0 540.36)">
		<path style="fill:#E74C3C;" d="M373.598,307.496v3.5h27.855c-0.909-1.225-1.892-2.394-2.943-3.5H373.598z"/>
		<path style="fill:#E74C3C;" d="M373.598,314.496v3.5h31.996c-0.544-1.198-1.15-2.366-1.816-3.5H373.598z"/>
		<path style="fill:#E74C3C;" d="M373.598,321.496v3.5h34.379c-0.276-1.182-0.609-2.35-0.998-3.5H373.598z"/>
		<path style="fill:#E74C3C;" d="M373.598,328.496v3.5h35.35c-0.054-1.171-0.163-2.339-0.326-3.5H373.598z"/>
	</g>
	<path id="SVGCleanerId_0" style="fill:#E74C3C;" d="M373.598,882.856v3.5h33.209c0.406-1.149,0.756-2.317,1.049-3.5H373.598z"/>
	<path style="fill:#E74C3C;" d="M373.598,875.856v3.5h34.949c0.173-1.161,0.29-2.328,0.354-3.5H373.598z"/>
	<g>
		<path id="SVGCleanerId_0_1_" style="fill:#E74C3C;" d="M373.598,882.856v3.5h33.209c0.406-1.149,0.756-2.317,1.049-3.5H373.598z"
			/>
	</g>
	<g transform="translate(0 540.36)">
		<path style="fill:#E74C3C;" d="M373.598,349.496v3.5h29.881c0.69-1.132,1.32-2.301,1.887-3.5H373.598z"/>
		<path style="fill:#E74C3C;" d="M373.598,356.496v3.5h24.404c1.092-1.102,2.114-2.271,3.061-3.5H373.598z"/>
	</g>
	<g>
		<path style="fill:#DCC6E0;" d="M32.341,784.345h13.552v2.905H35.503v6.255c0.501-0.171,1.003-0.296,1.504-0.376
			c0.501-0.091,1.003-0.137,1.504-0.137c2.848,0,5.104,0.78,6.768,2.341c1.663,1.561,2.495,3.674,2.495,6.34
			c0,2.746-0.854,4.882-2.563,6.409c-1.709,1.515-4.119,2.273-7.229,2.273c-1.071,0-2.165-0.091-3.281-0.273
			c-1.105-0.182-2.25-0.456-3.435-0.82v-3.469c1.025,0.558,2.085,0.974,3.179,1.248c1.094,0.273,2.25,0.41,3.469,0.41
			c1.971,0,3.532-0.518,4.683-1.555c1.151-1.037,1.726-2.444,1.726-4.221s-0.575-3.184-1.726-4.221
			c-1.151-1.037-2.712-1.555-4.683-1.555c-0.923,0-1.846,0.103-2.769,0.308c-0.911,0.205-1.846,0.524-2.803,0.957V784.345z"/>
		<path style="fill:#DCC6E0;" d="M64.077,787.353l-8.716,13.621h8.716V787.353z M63.171,784.345h4.341v16.628h3.64v2.871h-3.64
			v6.016h-3.435v-6.016H52.559v-3.333L63.171,784.345z"/>
		<path style="fill:#DCC6E0;" d="M76.912,784.345h13.552v2.905H80.073v6.255c0.501-0.171,1.003-0.296,1.504-0.376
			c0.501-0.091,1.003-0.137,1.504-0.137c2.848,0,5.104,0.78,6.768,2.341c1.663,1.561,2.495,3.674,2.495,6.34
			c0,2.746-0.854,4.882-2.563,6.409c-1.709,1.515-4.119,2.273-7.229,2.273c-1.071,0-2.165-0.091-3.281-0.273
			c-1.105-0.182-2.25-0.456-3.435-0.82v-3.469c1.025,0.558,2.085,0.974,3.179,1.248s2.25,0.41,3.469,0.41
			c1.971,0,3.532-0.518,4.683-1.555c1.151-1.037,1.726-2.444,1.726-4.221s-0.575-3.184-1.726-4.221
			c-1.151-1.037-2.712-1.555-4.683-1.555c-0.923,0-1.846,0.103-2.769,0.308c-0.911,0.205-1.846,0.524-2.803,0.957
			C76.912,797.162,76.912,784.345,76.912,784.345z"/>
		<path style="fill:#DCC6E0;" d="M102.136,806.955h12.048v2.905H97.983v-2.905c1.31-1.356,3.093-3.173,5.349-5.452
			c2.267-2.29,3.691-3.765,4.272-4.426c1.105-1.242,1.874-2.29,2.307-3.145c0.444-0.866,0.666-1.715,0.666-2.546
			c0-1.356-0.479-2.461-1.436-3.315c-0.946-0.854-2.182-1.282-3.708-1.282c-1.082,0-2.227,0.188-3.435,0.564
			c-1.196,0.376-2.478,0.946-3.845,1.709v-3.486c1.39-0.558,2.689-0.98,3.896-1.265c1.208-0.285,2.313-0.427,3.315-0.427
			c2.643,0,4.751,0.661,6.323,1.982c1.572,1.322,2.358,3.088,2.358,5.298c0,1.048-0.199,2.045-0.598,2.991
			c-0.387,0.934-1.099,2.039-2.136,3.315c-0.285,0.33-1.191,1.287-2.717,2.871C107.069,801.913,104.916,804.118,102.136,806.955
			L102.136,806.955z"/>
		<path style="fill:#DCC6E0;" d="M146.707,806.955h12.048v2.905h-16.201v-2.905c1.31-1.356,3.093-3.173,5.349-5.452
			c2.267-2.29,3.691-3.765,4.272-4.426c1.105-1.242,1.874-2.29,2.307-3.145c0.444-0.866,0.667-1.715,0.667-2.546
			c0-1.356-0.479-2.461-1.436-3.315c-0.946-0.854-2.182-1.282-3.708-1.282c-1.082,0-2.227,0.188-3.435,0.564
			c-1.196,0.376-2.478,0.946-3.845,1.709v-3.486c1.39-0.558,2.689-0.98,3.896-1.265c1.208-0.285,2.313-0.427,3.315-0.427
			c2.643,0,4.751,0.661,6.323,1.982c1.572,1.322,2.358,3.088,2.358,5.298c0,1.048-0.199,2.045-0.598,2.991
			c-0.387,0.934-1.099,2.039-2.136,3.315c-0.285,0.33-1.191,1.287-2.717,2.871C151.64,801.913,149.486,804.118,146.707,806.955
			L146.707,806.955z"/>
		<path style="fill:#DCC6E0;" d="M165.146,784.345h16.406v1.47l-9.263,24.045h-3.606l8.716-22.61h-12.253V784.345z"/>
		<path style="fill:#DCC6E0;" d="M188.337,784.345h13.552v2.905h-10.391v6.255c0.501-0.171,1.003-0.296,1.504-0.376
			c0.501-0.091,1.003-0.137,1.504-0.137c2.848,0,5.104,0.78,6.768,2.341c1.663,1.561,2.495,3.674,2.495,6.34
			c0,2.746-0.854,4.882-2.563,6.409c-1.709,1.515-4.119,2.273-7.229,2.273c-1.071,0-2.165-0.091-3.281-0.273
			c-1.105-0.182-2.25-0.456-3.435-0.82v-3.469c1.025,0.558,2.085,0.974,3.179,1.248s2.25,0.41,3.469,0.41
			c1.971,0,3.532-0.518,4.683-1.555c1.151-1.037,1.726-2.444,1.726-4.221s-0.575-3.184-1.726-4.221
			c-1.151-1.037-2.712-1.555-4.683-1.555c-0.923,0-1.846,0.103-2.769,0.308c-0.911,0.205-1.846,0.524-2.803,0.957L188.337,784.345
			L188.337,784.345z"/>
		<path style="fill:#DCC6E0;" d="M213.562,806.955h12.048v2.905h-16.201v-2.905c1.31-1.356,3.093-3.173,5.349-5.452
			c2.267-2.29,3.691-3.765,4.272-4.426c1.105-1.242,1.874-2.29,2.307-3.145c0.444-0.866,0.667-1.715,0.667-2.546
			c0-1.356-0.479-2.461-1.436-3.315c-0.946-0.854-2.182-1.282-3.708-1.282c-1.082,0-2.227,0.188-3.435,0.564
			c-1.196,0.376-2.478,0.946-3.845,1.709v-3.486c1.39-0.558,2.689-0.98,3.896-1.265c1.208-0.285,2.313-0.427,3.315-0.427
			c2.643,0,4.751,0.661,6.323,1.982c1.572,1.322,2.358,3.088,2.358,5.298c0,1.048-0.199,2.045-0.598,2.991
			c-0.387,0.934-1.099,2.039-2.136,3.315c-0.285,0.33-1.191,1.287-2.717,2.871C218.495,801.913,216.342,804.118,213.562,806.955z"/>
		<path style="fill:#DCC6E0;" d="M262.542,786.618c-1.777,0-3.116,0.877-4.016,2.632c-0.889,1.743-1.333,4.369-1.333,7.878
			c0,3.498,0.444,6.124,1.333,7.878c0.9,1.743,2.239,2.615,4.016,2.615c1.789,0,3.127-0.872,4.016-2.615
			c0.9-1.755,1.35-4.381,1.35-7.878c0-3.509-0.45-6.135-1.35-7.878C265.669,787.495,264.33,786.618,262.542,786.618z
			 M262.542,783.883c2.86,0,5.042,1.134,6.545,3.401c1.515,2.256,2.273,5.537,2.273,9.844c0,4.295-0.758,7.577-2.273,9.844
			c-1.504,2.256-3.686,3.384-6.545,3.384s-5.047-1.128-6.563-3.384c-1.504-2.267-2.256-5.548-2.256-9.844
			c0-4.307,0.752-7.588,2.256-9.844C257.494,785.017,259.682,783.883,262.542,783.883z"/>
		<path style="fill:#DCC6E0;" d="M284.827,786.618c-1.777,0-3.116,0.877-4.016,2.632c-0.889,1.743-1.333,4.369-1.333,7.878
			c0,3.498,0.444,6.124,1.333,7.878c0.9,1.743,2.239,2.615,4.016,2.615c1.789,0,3.127-0.872,4.016-2.615
			c0.9-1.755,1.35-4.381,1.35-7.878c0-3.509-0.45-6.135-1.35-7.878C287.954,787.495,286.615,786.618,284.827,786.618z
			 M284.827,783.883c2.86,0,5.042,1.134,6.545,3.401c1.515,2.256,2.273,5.537,2.273,9.844c0,4.295-0.758,7.577-2.273,9.844
			c-1.504,2.256-3.686,3.384-6.545,3.384s-5.047-1.128-6.563-3.384c-1.504-2.267-2.256-5.548-2.256-9.844
			c0-4.307,0.752-7.588,2.256-9.844C279.779,785.017,281.967,783.883,284.827,783.883z"/>
		<path style="fill:#DCC6E0;" d="M307.112,786.618c-1.777,0-3.116,0.877-4.016,2.632c-0.889,1.743-1.333,4.369-1.333,7.878
			c0,3.498,0.444,6.124,1.333,7.878c0.9,1.743,2.239,2.615,4.016,2.615c1.789,0,3.127-0.872,4.016-2.615
			c0.9-1.755,1.35-4.381,1.35-7.878c0-3.509-0.45-6.135-1.35-7.878C310.239,787.495,308.901,786.618,307.112,786.618z
			 M307.112,783.883c2.86,0,5.042,1.134,6.545,3.401c1.515,2.256,2.273,5.537,2.273,9.844c0,4.295-0.758,7.577-2.273,9.844
			c-1.504,2.256-3.686,3.384-6.545,3.384s-5.047-1.128-6.563-3.384c-1.504-2.267-2.256-5.548-2.256-9.844
			c0-4.307,0.752-7.588,2.256-9.844C302.065,785.017,304.252,783.883,307.112,783.883z"/>
		<path style="fill:#DCC6E0;" d="M321.143,784.345h16.406v1.47l-9.263,24.045h-3.606l8.716-22.61h-12.253V784.345z"/>
		<path style="fill:#DCC6E0;" d="M374.395,795.727c-1.549,0-2.78,0.53-3.691,1.589c-0.9,1.06-1.35,2.512-1.35,4.358
			c0,1.834,0.45,3.287,1.35,4.358c0.911,1.06,2.142,1.589,3.691,1.589s2.774-0.53,3.674-1.589c0.911-1.071,1.367-2.524,1.367-4.358
			c0-1.846-0.456-3.298-1.367-4.358C377.169,796.256,375.944,795.727,374.395,795.727z M381.248,784.909v3.145
			c-0.866-0.41-1.743-0.723-2.632-0.94c-0.877-0.216-1.749-0.325-2.615-0.325c-2.279,0-4.022,0.769-5.229,2.307
			c-1.196,1.538-1.88,3.862-2.051,6.973c0.672-0.991,1.515-1.749,2.529-2.273c1.014-0.535,2.131-0.803,3.35-0.803
			c2.563,0,4.586,0.78,6.067,2.341c1.493,1.549,2.239,3.663,2.239,6.34c0,2.62-0.775,4.723-2.324,6.306
			c-1.549,1.584-3.612,2.375-6.187,2.375c-2.951,0-5.207-1.128-6.768-3.384c-1.561-2.267-2.341-5.548-2.341-9.844
			c0-4.033,0.957-7.246,2.871-9.639c1.914-2.404,4.483-3.606,7.708-3.606c0.866,0,1.737,0.085,2.615,0.256
			C379.368,784.311,380.291,784.567,381.248,784.909z"/>
		<path style="fill:#DCC6E0;" d="M387.998,784.345h16.406v1.47l-9.263,24.045h-3.606l8.716-22.61h-12.253V784.345z"/>
		<path style="fill:#DCC6E0;" d="M411.257,809.33v-3.145c0.866,0.41,1.743,0.724,2.632,0.94c0.889,0.216,1.76,0.325,2.615,0.325
			c2.279,0,4.016-0.763,5.212-2.29c1.208-1.538,1.897-3.868,2.068-6.99c-0.661,0.98-1.498,1.732-2.512,2.256
			c-1.014,0.524-2.136,0.786-3.367,0.786c-2.552,0-4.574-0.769-6.067-2.307c-1.481-1.549-2.222-3.663-2.222-6.34
			c0-2.62,0.775-4.722,2.324-6.306c1.549-1.584,3.612-2.375,6.187-2.375c2.951,0,5.201,1.134,6.75,3.401
			c1.561,2.256,2.341,5.537,2.341,9.844c0,4.022-0.957,7.235-2.871,9.639c-1.903,2.393-4.466,3.589-7.69,3.589
			c-0.866,0-1.743-0.085-2.632-0.256S412.214,809.672,411.257,809.33z M418.127,798.512c1.549,0,2.774-0.53,3.674-1.589
			c0.911-1.06,1.367-2.512,1.367-4.358c0-1.834-0.456-3.281-1.367-4.341c-0.9-1.071-2.125-1.606-3.674-1.606
			s-2.78,0.536-3.691,1.606c-0.9,1.06-1.35,2.507-1.35,4.341c0,1.846,0.45,3.298,1.35,4.358
			C415.348,797.982,416.578,798.512,418.127,798.512z"/>
		<path style="fill:#DCC6E0;" d="M434.038,806.955h5.64v-19.465l-6.135,1.23v-3.145l6.101-1.23h3.452v22.61h5.64v2.905h-14.697
			V806.955z"/>
		<path style="fill:#DCC6E0;" d="M74.242,862.2c0-1.823-0.173-3.105-0.518-3.848c-0.339-0.749-0.911-1.123-1.719-1.123
			c-0.807,0-1.383,0.374-1.729,1.123c-0.345,0.742-0.518,2.025-0.518,3.848c0,1.842,0.173,3.141,0.518,3.896
			c0.345,0.755,0.921,1.133,1.729,1.133c0.801,0,1.374-0.378,1.719-1.133C74.07,865.341,74.242,864.042,74.242,862.2z
			 M78.002,862.229c0,2.415-0.521,4.281-1.563,5.596c-1.042,1.309-2.52,1.963-4.434,1.963c-1.921,0-3.402-0.654-4.443-1.963
			c-1.042-1.315-1.563-3.18-1.563-5.596c0-2.422,0.521-4.287,1.563-5.596c1.042-1.315,2.523-1.973,4.443-1.973
			c1.914,0,3.392,0.658,4.434,1.973C77.481,857.942,78.002,859.807,78.002,862.229z"/>
		<path style="fill:#DCC6E0;" d="M81.068,854.924h9.346v2.764h-6.348v2.256c0.286-0.078,0.573-0.137,0.859-0.176
			c0.293-0.046,0.596-0.068,0.908-0.068c1.777,0,3.161,0.446,4.15,1.338c0.99,0.885,1.484,2.122,1.484,3.711
			c0,1.576-0.54,2.809-1.621,3.701c-1.074,0.892-2.568,1.338-4.482,1.338c-0.827,0-1.647-0.081-2.461-0.244
			c-0.807-0.156-1.611-0.397-2.412-0.723v-2.959c0.794,0.456,1.546,0.798,2.256,1.025c0.716,0.228,1.39,0.342,2.021,0.342
			c0.911,0,1.628-0.221,2.148-0.664c0.527-0.449,0.791-1.055,0.791-1.816c0-0.768-0.264-1.374-0.791-1.816
			c-0.521-0.443-1.237-0.664-2.148-0.664c-0.54,0-1.117,0.072-1.729,0.215c-0.612,0.137-1.27,0.352-1.973,0.645V854.924
			L81.068,854.924z"/>
		<path style="fill:#DCC6E0;" d="M104.945,854.924h2.168l-5.146,16.436h-2.158L104.945,854.924z"/>
		<path style="fill:#DCC6E0;" d="M116.41,866.907h3.32v-9.424l-3.408,0.703v-2.559l3.389-0.703h3.574v11.982h3.32v2.598H116.41
			V866.907z"/>
		<path style="fill:#DCC6E0;" d="M137.289,861.643c0.983,0.254,1.729,0.697,2.236,1.328c0.514,0.625,0.771,1.423,0.771,2.393
			c0,1.445-0.553,2.546-1.66,3.301c-1.107,0.749-2.721,1.123-4.844,1.123c-0.749,0-1.501-0.062-2.256-0.186
			c-0.749-0.117-1.491-0.296-2.227-0.537v-2.9c0.703,0.352,1.4,0.619,2.09,0.801c0.697,0.176,1.38,0.264,2.051,0.264
			c0.996,0,1.758-0.172,2.285-0.518c0.534-0.345,0.801-0.84,0.801-1.484c0-0.664-0.273-1.165-0.82-1.504
			c-0.54-0.345-1.341-0.518-2.402-0.518h-1.504v-2.422h1.582c0.944,0,1.647-0.146,2.109-0.439c0.462-0.299,0.693-0.752,0.693-1.357
			c0-0.56-0.225-0.993-0.674-1.299c-0.449-0.306-1.084-0.459-1.904-0.459c-0.605,0-1.217,0.068-1.836,0.205
			s-1.234,0.339-1.846,0.605v-2.754c0.742-0.208,1.478-0.365,2.207-0.469c0.729-0.104,1.445-0.156,2.148-0.156
			c1.895,0,3.311,0.313,4.248,0.938c0.944,0.619,1.416,1.553,1.416,2.803c0,0.853-0.225,1.553-0.674,2.1
			C138.832,861.041,138.168,861.422,137.289,861.643z"/>
		<path style="fill:#DCC6E0;" d="M149.916,862.327h6.133v2.842h-6.133V862.327z"/>
		<path style="fill:#DCC6E0;" d="M173.305,862.2c0-1.823-0.173-3.105-0.518-3.848c-0.339-0.749-0.911-1.123-1.719-1.123
			c-0.807,0-1.383,0.374-1.729,1.123c-0.345,0.742-0.518,2.025-0.518,3.848c0,1.842,0.173,3.141,0.518,3.896
			c0.345,0.755,0.921,1.133,1.729,1.133c0.801,0,1.374-0.378,1.719-1.133C173.132,865.341,173.305,864.042,173.305,862.2z
			 M177.064,862.229c0,2.415-0.521,4.281-1.563,5.596c-1.042,1.309-2.52,1.963-4.434,1.963c-1.921,0-3.402-0.654-4.443-1.963
			c-1.042-1.315-1.563-3.18-1.563-5.596c0-2.422,0.521-4.287,1.563-5.596c1.042-1.315,2.523-1.973,4.443-1.973
			c1.914,0,3.392,0.658,4.434,1.973C176.544,857.942,177.064,859.807,177.064,862.229z"/>
		<path style="fill:#DCC6E0;" d="M180.131,854.924h9.346v2.764h-6.348v2.256c0.286-0.078,0.573-0.137,0.859-0.176
			c0.293-0.046,0.596-0.068,0.908-0.068c1.777,0,3.161,0.446,4.15,1.338c0.99,0.885,1.484,2.122,1.484,3.711
			c0,1.576-0.54,2.809-1.621,3.701c-1.074,0.892-2.568,1.338-4.482,1.338c-0.827,0-1.647-0.081-2.461-0.244
			c-0.807-0.156-1.611-0.397-2.412-0.723v-2.959c0.794,0.456,1.546,0.798,2.256,1.025c0.716,0.228,1.39,0.342,2.021,0.342
			c0.911,0,1.628-0.221,2.148-0.664c0.527-0.449,0.791-1.055,0.791-1.816c0-0.768-0.264-1.374-0.791-1.816
			c-0.521-0.443-1.237-0.664-2.148-0.664c-0.54,0-1.117,0.072-1.729,0.215c-0.612,0.137-1.27,0.352-1.973,0.645L180.131,854.924
			L180.131,854.924z"/>
		<path style="fill:#DCC6E0;" d="M204.008,854.924h2.168l-5.146,16.436h-2.158L204.008,854.924z"/>
		<path style="fill:#DCC6E0;" d="M215.473,866.907h3.32v-9.424l-3.408,0.703v-2.559l3.389-0.703h3.574v11.982h3.32v2.598h-10.195
			V866.907z"/>
		<path style="fill:#DCC6E0;" d="M233.998,862.981c-0.703,0-1.243,0.192-1.621,0.576c-0.378,0.384-0.566,0.934-0.566,1.65
			c0,0.716,0.189,1.266,0.566,1.65c0.378,0.378,0.918,0.566,1.621,0.566c0.697,0,1.23-0.189,1.602-0.566
			c0.371-0.384,0.557-0.934,0.557-1.65c0-0.723-0.186-1.273-0.557-1.65C235.229,863.173,234.695,862.981,233.998,862.981z
			 M231.254,861.741c-0.885-0.267-1.553-0.677-2.002-1.23c-0.449-0.553-0.674-1.243-0.674-2.07c0-1.23,0.459-2.168,1.377-2.813
			s2.266-0.967,4.043-0.967c1.764,0,3.105,0.322,4.023,0.967c0.918,0.638,1.377,1.576,1.377,2.813c0,0.827-0.228,1.517-0.684,2.07
			c-0.449,0.553-1.117,0.964-2.002,1.23c0.99,0.273,1.735,0.719,2.236,1.338c0.508,0.612,0.762,1.387,0.762,2.324
			c0,1.445-0.482,2.539-1.445,3.281c-0.957,0.736-2.38,1.104-4.268,1.104c-1.895,0-3.327-0.368-4.297-1.104
			c-0.964-0.742-1.445-1.836-1.445-3.281c0-0.938,0.251-1.712,0.752-2.324C229.516,862.46,230.264,862.014,231.254,861.741z
			 M232.133,858.821c0,0.579,0.16,1.025,0.479,1.338c0.326,0.313,0.788,0.469,1.387,0.469c0.586,0,1.038-0.156,1.357-0.469
			c0.319-0.313,0.479-0.758,0.479-1.338c0-0.579-0.16-1.022-0.479-1.328c-0.319-0.313-0.771-0.469-1.357-0.469
			c-0.599,0-1.061,0.156-1.387,0.469C232.292,857.805,232.133,858.248,232.133,858.821z"/>
	</g>
	<g>
		<path style="fill:#EBCA3D;" d="M316.552,648.617h2.739l4.216,16.946l4.203-16.946h3.048l4.216,16.946l4.203-16.946h2.753
			l-5.035,20.048h-3.411l-4.23-17.402l-4.27,17.402h-3.411L316.552,648.617z"/>
		<path style="fill:#EBCA3D;" d="M363.653,650.456c-1.969,0-3.536,0.734-4.7,2.202c-1.155,1.468-1.732,3.469-1.732,6.002
			c0,2.524,0.577,4.521,1.732,5.989c1.164,1.468,2.73,2.202,4.7,2.202c1.969,0,3.527-0.734,4.673-2.202
			c1.155-1.468,1.732-3.464,1.732-5.989c0-2.533-0.577-4.534-1.732-6.002C367.18,651.19,365.623,650.456,363.653,650.456z
			 M363.653,648.254c2.811,0,5.058,0.944,6.741,2.833c1.683,1.88,2.524,4.404,2.524,7.573c0,3.16-0.841,5.684-2.524,7.573
			c-1.683,1.88-3.93,2.82-6.741,2.82c-2.82,0-5.076-0.94-6.768-2.82c-1.683-1.88-2.524-4.404-2.524-7.573s0.841-5.693,2.524-7.573
			C358.577,649.199,360.833,648.254,363.653,648.254z"/>
		<path style="fill:#EBCA3D;" d="M396.668,659.265c0.582,0.197,1.146,0.618,1.692,1.262c0.555,0.645,1.11,1.531,1.665,2.659
			l2.753,5.479h-2.914l-2.565-5.143c-0.662-1.343-1.307-2.233-1.934-2.672c-0.618-0.439-1.464-0.658-2.538-0.658h-2.954v8.473
			h-2.712v-20.048h6.123c2.292,0,4.001,0.479,5.129,1.437c1.128,0.958,1.692,2.404,1.692,4.337c0,1.262-0.295,2.31-0.886,3.142
			C398.638,658.365,397.787,658.943,396.668,659.265z M389.874,650.846v7.117h3.411c1.307,0,2.292-0.3,2.954-0.9
			c0.671-0.609,1.007-1.499,1.007-2.672c0-1.173-0.336-2.054-1.007-2.645c-0.662-0.6-1.647-0.9-2.954-0.9H389.874z"/>
		<path style="fill:#EBCA3D;" d="M416.283,648.617h2.712v17.765h9.762v2.283h-12.474V648.617z"/>
		<path style="fill:#EBCA3D;" d="M444.303,650.846v15.59h3.276c2.766,0,4.789-0.627,6.069-1.88c1.289-1.253,1.934-3.232,1.934-5.935
			c0-2.686-0.645-4.65-1.934-5.895c-1.28-1.253-3.303-1.88-6.069-1.88H444.303z M441.59,648.617h5.573
			c3.885,0,6.736,0.81,8.553,2.43c1.817,1.611,2.726,4.136,2.726,7.573c0,3.455-0.913,5.993-2.739,7.614
			c-1.826,1.62-4.673,2.43-8.54,2.43h-5.573V648.617z"/>
	</g>
	<g>
		<path style="fill:#DCC6E0;" d="M27.595,899.514h1.603v11.846h-1.603V899.514z"/>
		<path style="fill:#DCC6E0;" d="M39.711,905.996v5.364h-1.46v-5.316c0-0.841-0.164-1.471-0.492-1.888
			c-0.328-0.418-0.82-0.627-1.476-0.627c-0.788,0-1.41,0.251-1.865,0.754c-0.455,0.503-0.682,1.188-0.682,2.055v5.023h-1.468v-8.887
			h1.468v1.381c0.349-0.534,0.759-0.934,1.23-1.198c0.476-0.265,1.024-0.397,1.642-0.397c1.021,0,1.793,0.317,2.317,0.952
			C39.449,903.841,39.711,904.769,39.711,905.996z"/>
		<path style="fill:#DCC6E0;" d="M44.083,899.95v2.523h3.007v1.135h-3.007v4.824c0,0.725,0.098,1.19,0.294,1.396
			c0.201,0.206,0.606,0.309,1.214,0.309h1.5v1.222h-1.5c-1.127,0-1.904-0.209-2.333-0.627c-0.428-0.423-0.643-1.19-0.643-2.301
			v-4.824h-1.071v-1.135h1.071v-2.523H44.083z"/>
		<path style="fill:#DCC6E0;" d="M56.62,906.552v0.714h-6.713c0.063,1.005,0.365,1.772,0.905,2.301
			c0.545,0.524,1.301,0.786,2.269,0.786c0.561,0,1.103-0.069,1.627-0.206c0.529-0.138,1.053-0.344,1.571-0.619v1.381
			c-0.524,0.222-1.061,0.391-1.611,0.508c-0.55,0.116-1.108,0.175-1.674,0.175c-1.418,0-2.542-0.413-3.372-1.238
			c-0.825-0.825-1.238-1.941-1.238-3.348c0-1.455,0.391-2.608,1.174-3.459c0.788-0.857,1.849-1.285,3.182-1.285
			c1.195,0,2.14,0.386,2.833,1.158C56.27,904.184,56.62,905.229,56.62,906.552z M55.16,906.123
			c-0.011-0.799-0.235-1.436-0.674-1.912c-0.434-0.476-1.01-0.714-1.73-0.714c-0.815,0-1.468,0.23-1.96,0.69
			c-0.487,0.46-0.767,1.108-0.841,1.944L55.16,906.123L55.16,906.123z"/>
		<path style="fill:#DCC6E0;" d="M64.165,903.838c-0.164-0.095-0.344-0.164-0.54-0.206c-0.19-0.048-0.402-0.071-0.635-0.071
			c-0.825,0-1.46,0.27-1.904,0.809c-0.439,0.534-0.659,1.304-0.659,2.309v4.681H58.96v-8.887h1.468v1.381
			c0.307-0.54,0.706-0.939,1.198-1.198c0.492-0.265,1.09-0.397,1.793-0.397c0.101,0,0.212,0.008,0.333,0.024
			c0.122,0.011,0.257,0.029,0.405,0.056L64.165,903.838L64.165,903.838z"/>
		<path style="fill:#DCC6E0;" d="M72.814,905.996v5.364h-1.46v-5.316c0-0.841-0.164-1.471-0.492-1.888
			c-0.328-0.418-0.82-0.627-1.476-0.627c-0.788,0-1.41,0.251-1.865,0.754c-0.455,0.503-0.682,1.188-0.682,2.055v5.023h-1.468v-8.887
			h1.468v1.381c0.349-0.534,0.759-0.934,1.23-1.198c0.476-0.265,1.024-0.397,1.642-0.397c1.021,0,1.793,0.317,2.317,0.952
			C72.552,903.841,72.814,904.769,72.814,905.996z"/>
		<path style="fill:#DCC6E0;" d="M79.781,906.893c-1.18,0-1.997,0.135-2.452,0.405s-0.682,0.73-0.682,1.381
			c0,0.518,0.169,0.931,0.508,1.238c0.344,0.302,0.809,0.452,1.396,0.452c0.809,0,1.457-0.286,1.944-0.857
			c0.492-0.577,0.738-1.341,0.738-2.293v-0.325H79.781z M82.693,906.29v5.07h-1.46v-1.349c-0.333,0.54-0.748,0.939-1.246,1.198
			c-0.497,0.254-1.106,0.381-1.825,0.381c-0.91,0-1.635-0.254-2.174-0.762c-0.534-0.513-0.801-1.198-0.801-2.055
			c0-1,0.333-1.754,1-2.261c0.672-0.508,1.672-0.762,2.999-0.762h2.047v-0.143c0-0.672-0.222-1.19-0.666-1.555
			c-0.439-0.37-1.058-0.555-1.857-0.555c-0.508,0-1.002,0.061-1.484,0.182c-0.481,0.122-0.944,0.304-1.389,0.547v-1.349
			c0.534-0.206,1.053-0.36,1.555-0.46c0.503-0.106,0.992-0.159,1.468-0.159c1.285,0,2.245,0.333,2.88,1
			S82.693,904.936,82.693,906.29z"/>
		<path style="fill:#DCC6E0;" d="M87.152,899.95v2.523h3.007v1.135h-3.007v4.824c0,0.725,0.098,1.19,0.294,1.396
			c0.201,0.206,0.606,0.309,1.214,0.309h1.5v1.222h-1.5c-1.127,0-1.904-0.209-2.333-0.627c-0.428-0.423-0.643-1.19-0.643-2.301
			v-4.824h-1.071v-1.135h1.071v-2.523C85.684,899.95,87.152,899.95,87.152,899.95z"/>
		<path style="fill:#DCC6E0;" d="M92.087,902.473h1.46v8.887h-1.46V902.473z M92.087,899.014h1.46v1.849h-1.46V899.014z"/>
		<path style="fill:#DCC6E0;" d="M100.037,903.497c-0.783,0-1.402,0.307-1.857,0.92c-0.455,0.608-0.682,1.444-0.682,2.507
			s0.225,1.902,0.674,2.515c0.455,0.608,1.076,0.912,1.865,0.912c0.778,0,1.394-0.307,1.849-0.92
			c0.455-0.614,0.682-1.449,0.682-2.507c0-1.053-0.227-1.886-0.682-2.499C101.431,903.806,100.815,903.497,100.037,903.497z
			 M100.037,902.259c1.27,0,2.267,0.413,2.991,1.238c0.725,0.825,1.087,1.968,1.087,3.428c0,1.455-0.362,2.597-1.087,3.428
			c-0.725,0.825-1.722,1.238-2.991,1.238c-1.275,0-2.275-0.413-2.999-1.238c-0.719-0.831-1.079-1.973-1.079-3.428
			c0-1.46,0.36-2.603,1.079-3.428C97.763,902.672,98.763,902.259,100.037,902.259z"/>
		<path style="fill:#DCC6E0;" d="M113.915,905.996v5.364h-1.46v-5.316c0-0.841-0.164-1.471-0.492-1.888
			c-0.328-0.418-0.82-0.627-1.476-0.627c-0.788,0-1.41,0.251-1.865,0.754c-0.455,0.503-0.682,1.188-0.682,2.055v5.023h-1.468v-8.887
			h1.468v1.381c0.349-0.534,0.759-0.934,1.23-1.198c0.476-0.265,1.024-0.397,1.642-0.397c1.021,0,1.793,0.317,2.317,0.952
			C113.653,903.841,113.915,904.769,113.915,905.996z"/>
		<path style="fill:#DCC6E0;" d="M120.882,906.893c-1.18,0-1.997,0.135-2.452,0.405c-0.455,0.27-0.682,0.73-0.682,1.381
			c0,0.518,0.169,0.931,0.508,1.238c0.344,0.302,0.809,0.452,1.396,0.452c0.809,0,1.457-0.286,1.944-0.857
			c0.492-0.577,0.738-1.341,0.738-2.293v-0.325H120.882z M123.794,906.29v5.07h-1.46v-1.349c-0.333,0.54-0.748,0.939-1.246,1.198
			c-0.497,0.254-1.106,0.381-1.825,0.381c-0.91,0-1.635-0.254-2.174-0.762c-0.534-0.513-0.801-1.198-0.801-2.055
			c0-1,0.333-1.754,1-2.261c0.672-0.508,1.672-0.762,2.999-0.762h2.047v-0.143c0-0.672-0.222-1.19-0.667-1.555
			c-0.439-0.37-1.058-0.555-1.857-0.555c-0.508,0-1.002,0.061-1.484,0.182c-0.481,0.122-0.944,0.304-1.389,0.547v-1.349
			c0.534-0.206,1.053-0.36,1.555-0.46c0.503-0.106,0.992-0.159,1.468-0.159c1.285,0,2.245,0.333,2.88,1
			S123.794,904.936,123.794,906.29z"/>
		<path style="fill:#DCC6E0;" d="M126.809,899.014h1.46v12.346h-1.46V899.014z"/>
		<path style="fill:#DCC6E0;" d="M145.423,900.426v1.69c-0.54-0.503-1.116-0.878-1.73-1.127c-0.608-0.249-1.256-0.373-1.944-0.373
			c-1.354,0-2.391,0.415-3.11,1.246c-0.719,0.825-1.079,2.021-1.079,3.586c0,1.56,0.36,2.756,1.079,3.586
			c0.719,0.825,1.756,1.238,3.11,1.238c0.688,0,1.336-0.124,1.944-0.373c0.614-0.249,1.19-0.624,1.73-1.127v1.674
			c-0.561,0.381-1.156,0.667-1.785,0.857c-0.624,0.19-1.285,0.286-1.984,0.286c-1.793,0-3.206-0.547-4.237-1.642
			c-1.031-1.1-1.547-2.6-1.547-4.499c0-1.904,0.516-3.404,1.547-4.499c1.031-1.1,2.444-1.65,4.237-1.65c0.709,0,1.375,0.095,2,0.286
			C144.283,899.77,144.873,900.051,145.423,900.426z"/>
		<path style="fill:#DCC6E0;" d="M153.001,903.838c-0.164-0.095-0.344-0.164-0.54-0.206c-0.19-0.048-0.402-0.071-0.635-0.071
			c-0.825,0-1.46,0.27-1.904,0.809c-0.439,0.534-0.659,1.304-0.659,2.309v4.681h-1.468v-8.887h1.468v1.381
			c0.307-0.54,0.706-0.939,1.198-1.198c0.492-0.265,1.09-0.397,1.793-0.397c0.101,0,0.212,0.008,0.333,0.024
			c0.122,0.011,0.257,0.029,0.405,0.056L153.001,903.838L153.001,903.838z"/>
		<path style="fill:#DCC6E0;" d="M161.8,906.552v0.714h-6.713c0.063,1.005,0.365,1.772,0.905,2.301
			c0.545,0.524,1.301,0.786,2.269,0.786c0.561,0,1.103-0.069,1.627-0.206c0.529-0.138,1.053-0.344,1.571-0.619v1.381
			c-0.524,0.222-1.061,0.391-1.611,0.508c-0.55,0.116-1.108,0.175-1.674,0.175c-1.418,0-2.542-0.413-3.372-1.238
			c-0.825-0.825-1.238-1.941-1.238-3.348c0-1.455,0.391-2.608,1.174-3.459c0.788-0.857,1.849-1.285,3.182-1.285
			c1.195,0,2.14,0.386,2.833,1.158C161.451,904.184,161.8,905.229,161.8,906.552L161.8,906.552z M160.34,906.123
			c-0.011-0.799-0.235-1.436-0.674-1.912c-0.434-0.476-1.01-0.714-1.73-0.714c-0.815,0-1.468,0.23-1.96,0.69
			c-0.487,0.46-0.767,1.108-0.841,1.944L160.34,906.123L160.34,906.123z"/>
		<path style="fill:#DCC6E0;" d="M170.044,903.822v-4.808h1.46v12.346h-1.46v-1.333c-0.307,0.529-0.696,0.923-1.166,1.182
			c-0.465,0.254-1.026,0.381-1.682,0.381c-1.074,0-1.949-0.428-2.626-1.285c-0.672-0.857-1.008-1.984-1.008-3.38
			s0.336-2.523,1.008-3.38c0.677-0.857,1.553-1.285,2.626-1.285c0.656,0,1.217,0.13,1.682,0.389
			C169.349,902.902,169.737,903.293,170.044,903.822z M165.069,906.924c0,1.074,0.22,1.918,0.659,2.531
			c0.444,0.608,1.053,0.912,1.825,0.912c0.772,0,1.381-0.304,1.825-0.912c0.444-0.614,0.667-1.457,0.667-2.531
			c0-1.074-0.222-1.915-0.667-2.523c-0.444-0.614-1.053-0.92-1.825-0.92c-0.772,0-1.381,0.307-1.825,0.92
			C165.289,905.01,165.069,905.851,165.069,906.924z"/>
		<path style="fill:#DCC6E0;" d="M174.511,902.473h1.46v8.887h-1.46V902.473z M174.511,899.014h1.46v1.849h-1.46V899.014z"/>
		<path style="fill:#DCC6E0;" d="M180.462,899.95v2.523h3.007v1.135h-3.007v4.824c0,0.725,0.098,1.19,0.294,1.396
			c0.201,0.206,0.606,0.309,1.214,0.309h1.5v1.222h-1.5c-1.127,0-1.904-0.209-2.333-0.627c-0.428-0.423-0.643-1.19-0.643-2.301
			v-4.824h-1.071v-1.135h1.071v-2.523H180.462z"/>
		<path style="fill:#DCC6E0;" d="M199.505,900.426v1.69c-0.54-0.503-1.116-0.878-1.73-1.127c-0.608-0.249-1.256-0.373-1.944-0.373
			c-1.354,0-2.391,0.415-3.11,1.246c-0.719,0.825-1.079,2.021-1.079,3.586c0,1.56,0.36,2.756,1.079,3.586
			c0.719,0.825,1.756,1.238,3.11,1.238c0.688,0,1.336-0.124,1.944-0.373c0.614-0.249,1.19-0.624,1.73-1.127v1.674
			c-0.561,0.381-1.156,0.667-1.785,0.857c-0.624,0.19-1.285,0.286-1.984,0.286c-1.793,0-3.206-0.547-4.237-1.642
			c-1.031-1.1-1.547-2.6-1.547-4.499c0-1.904,0.516-3.404,1.547-4.499c1.031-1.1,2.444-1.65,4.237-1.65c0.709,0,1.375,0.095,2,0.286
			C198.365,899.77,198.955,900.051,199.505,900.426z"/>
		<path style="fill:#DCC6E0;" d="M205.972,906.893c-1.18,0-1.997,0.135-2.452,0.405s-0.682,0.73-0.682,1.381
			c0,0.518,0.169,0.931,0.508,1.238c0.344,0.302,0.809,0.452,1.396,0.452c0.809,0,1.457-0.286,1.944-0.857
			c0.492-0.577,0.738-1.341,0.738-2.293v-0.325H205.972z M208.884,906.29v5.07h-1.46v-1.349c-0.333,0.54-0.748,0.939-1.246,1.198
			c-0.497,0.254-1.106,0.381-1.825,0.381c-0.91,0-1.635-0.254-2.174-0.762c-0.534-0.513-0.801-1.198-0.801-2.055
			c0-1,0.333-1.754,1-2.261c0.672-0.508,1.672-0.762,2.999-0.762h2.047v-0.143c0-0.672-0.222-1.19-0.667-1.555
			c-0.439-0.37-1.058-0.555-1.857-0.555c-0.508,0-1.002,0.061-1.484,0.182c-0.481,0.122-0.944,0.304-1.389,0.547v-1.349
			c0.534-0.206,1.053-0.36,1.555-0.46c0.503-0.106,0.992-0.159,1.468-0.159c1.285,0,2.245,0.333,2.88,1
			S208.884,904.936,208.884,906.29z"/>
		<path style="fill:#DCC6E0;" d="M217.049,903.838c-0.164-0.095-0.344-0.164-0.54-0.206c-0.19-0.048-0.402-0.071-0.635-0.071
			c-0.825,0-1.46,0.27-1.904,0.809c-0.439,0.534-0.659,1.304-0.659,2.309v4.681h-1.468v-8.887h1.468v1.381
			c0.307-0.54,0.706-0.939,1.198-1.198c0.492-0.265,1.09-0.397,1.793-0.397c0.101,0,0.212,0.008,0.333,0.024
			c0.122,0.011,0.257,0.029,0.405,0.056L217.049,903.838L217.049,903.838z"/>
		<path style="fill:#DCC6E0;" d="M224.158,903.822v-4.808h1.46v12.346h-1.46v-1.333c-0.307,0.529-0.696,0.923-1.166,1.182
			c-0.466,0.254-1.026,0.381-1.682,0.381c-1.074,0-1.949-0.428-2.626-1.285c-0.672-0.857-1.008-1.984-1.008-3.38
			s0.336-2.523,1.008-3.38c0.677-0.857,1.553-1.285,2.626-1.285c0.656,0,1.217,0.13,1.682,0.389
			C223.462,902.902,223.851,903.293,224.158,903.822z M219.183,906.924c0,1.074,0.22,1.918,0.659,2.531
			c0.444,0.608,1.053,0.912,1.825,0.912c0.772,0,1.381-0.304,1.825-0.912c0.444-0.614,0.667-1.457,0.667-2.531
			c0-1.074-0.222-1.915-0.667-2.523c-0.444-0.614-1.053-0.92-1.825-0.92c-0.772,0-1.381,0.307-1.825,0.92
			C219.403,905.01,219.183,905.851,219.183,906.924z"/>
	</g>
</g>
<g>
</g>
<g>
</g>
<g>
</g>
<g>
</g>
<g>
</g>
<g>
</g>
<g>
</g>
<g>
</g>
<g>
</g>
<g>
</g>
<g>
</g>
<g>
</g>
<g>
</g>
<g>
</g>
<g>
</g>
</svg>
