<?xml version="1.0" encoding="UTF-8"?>
<svg width="119px" height="118px" viewBox="0 0 119 118" version="1.1" xmlns="http://www.w3.org/2000/svg" xmlns:xlink="http://www.w3.org/1999/xlink">
    <!-- Generator: Sketch 44.1 (41455) - http://www.bohemiancoding.com/sketch -->
    <title>bao-ve-nguoi-mua</title>
    <desc>Created with Sketch.</desc>
    <defs></defs>
    <g id="Page-1" stroke="none" stroke-width="1" fill="none" fill-rule="evenodd">
        <g id="bao-ve-nguoi-mua">
            <g id="Group" fill-rule="nonzero" fill="#417505">
                <path d="M19.2,16.6181818 C31.3596672,5.5143634 47.7304103,0.01017882 64.2461538,1.47272727 L64.6153846,1.09090909 C63.5630769,0.98181818 62.4553846,0.81818182 61.3292308,0.81818182 C45.658002,0.21853549 30.3877804,5.78033416 18.8837545,16.2778916 C7.37972865,26.775449 0.586092642,41.347177 0,56.7818182 C0,57.8909091 0,59 0,60.0909091 L0.424615385,59.7090909 C0.201739109,43.3744647 7.02546268,27.7135098 19.2,16.6181818 L19.2,16.6181818 Z" id="Shape"></path>
                <path d="M102.110769,19.7272727 C105.01672,22.8369618 107.567372,26.2513396 109.716923,29.9090909 L110.030769,29.6181818 C104.777812,20.8037198 97.2820326,13.4904471 88.2830769,8.4 L87.9507692,8.70909091 C93.2213161,11.6379739 97.9982036,15.3549665 102.110769,19.7272727 Z" id="Shape"></path>
                <path d="M117.655385,51.4363636 L117.249231,51.8 C120.857908,80.0055139 103.091612,106.603806 75.3637666,114.507602 C47.6359208,122.411397 18.1908326,109.270664 5.94461538,83.5272727 L5.53846154,83.8181818 C17.0670449,108.240854 44.1085505,121.678706 70.9050765,116.301097 C97.7016025,110.923489 117.247939,88.1362451 118.153846,61.2181818 C118.26385,57.9496004 118.09712,54.6776751 117.655385,51.4363636 Z" id="Shape"></path>
                <path d="M16.4307692,35.9818182 C23.4473471,23.3810789 35.8387791,14.5496344 50.185542,11.9245985 C64.5323048,9.2995627 79.3176886,13.1584487 90.4615385,22.4363636 L90.72,22.1454545 C70.5474599,5.32911698 40.4698199,7.29157912 22.7261538,26.5818182 C20.0983715,29.4337741 17.8239679,32.5831217 15.9507692,35.9636364 L16.4307692,35.9818182 Z" id="Shape"></path>
                <path d="M25.2369231,93.4 C15.0564611,83.7270053 9.66361994,70.1637034 10.4676923,56.2545455 L10.1353846,56.2545455 C10.0440523,57.9685177 10.0440523,59.6860278 10.1353846,61.4 C10.6917325,73.6259482 15.9759366,85.1791399 24.9046154,93.6909091 L25.2369231,93.4 Z" id="Shape"></path>
                <path d="M101.704615,35.9818182 L102.184615,35.9818182 C101.692308,35.0848485 101.169231,34.2060606 100.615385,33.3454545 L100.338462,33.6545455 C100.818462,34.4181818 101.273846,35.1939394 101.704615,35.9818182 Z" id="Shape"></path>
                <path d="M108.036923,56.6181818 L108.036923,56.2363636 L107.630769,56.2363636 C108.658877,73.2711537 100.398368,89.5561721 85.9507391,98.977035 C71.5031099,108.397898 53.0547557,109.528923 37.5323077,101.945455 L37.2553846,102.254545 C52.8411764,109.876492 71.3612135,108.792139 85.920253,99.405205 C100.479292,90.018271 108.896074,73.735123 108.036923,56.6181818 Z" id="Shape"></path>
                <path d="M78.9230769,106.981818 C79.6430769,106.690909 80.3630769,106.381818 81.0646154,106.054545 L80.8984615,105.709091 C80.1969231,106.036364 79.4953846,106.345455 78.7753846,106.636364 L78.9230769,106.981818 Z" id="Shape"></path>
                <path d="M17.6492308,91.8545455 L17.9446154,91.6181818 C17.4646154,91.0363636 16.9846154,90.4363636 16.5230769,89.8 L16.2092308,90.0363636 C16.6153846,90.6545455 17.1507692,91.2727273 17.6492308,91.8545455 Z" id="Shape"></path>
                <path d="M14.7692308,88.0909091 L15.0830769,87.8727273 C14.6584615,87.2545455 14.2338462,86.6 13.8276923,85.9636364 L13.5876923,86.2727273 C13.9938462,86.9090909 14.4184615,87.5454545 14.7692308,88.0909091 Z" id="Shape"></path>
                <path d="M7.92,73.6909091 C8.14153846,74.4181818 8.38153846,75.1636364 8.62153846,75.8909091 L8.99076923,75.7636364 C8.75076923,75.0545455 8.51076923,74.3090909 8.28923077,73.5818182 L7.92,73.6909091 Z" id="Shape"></path>
                <path d="M22.4123077,96.8909091 C22.9846154,97.4181818 23.5569231,97.9272727 24.1476923,98.4181818 L24.4061538,98.1272727 C23.8153846,97.6363636 23.2430769,97.1272727 22.6892308,96.6 L22.4123077,96.8909091 Z" id="Shape"></path>
                <path d="M12.4246154,84.2727273 L12.7569231,84.0909091 C12.3876923,83.4363636 12.0184615,82.7454545 11.6676923,82.0727273 L11.3169231,82.2363636 C11.6676923,82.9272727 12.0369231,83.6 12.4246154,84.2727273 Z" id="Shape"></path>
                <path d="M10.3384615,80.1636364 L10.6892308,80 C10.3753846,79.3090909 10.08,78.6 9.80307692,77.8909091 L9.43384615,78.0363636 C9.71076923,78.7454545 10.0246154,79.4727273 10.3384615,80.1636364 Z" id="Shape"></path>
                <path d="M74.5292308,108.563636 C75.2676923,108.327273 76.0061538,108.090909 76.7446154,107.818182 L76.6153846,107.454545 L74.4184615,108.181818 L74.5292308,108.563636 Z" id="Shape"></path>
                <polygon id="Shape" points="65.4276923 110.545455 67.7353846 110.2 67.7353846 109.818182 65.4461538 110.163636"></polygon>
                <polygon id="Shape" points="70.0246154 109.745455 72.2953846 109.2 72.2030769 108.836364 69.9507692 109.381818"></polygon>
                <path d="M27.8215385,101.272727 L28.0430769,100.963636 C27.4153846,100.527273 26.7876923,100.054545 26.1969231,99.6 L25.9569231,99.909091 C26.5661538,100.363636 27.1938462,100.818182 27.8215385,101.272727 Z" id="Shape"></path>
                <path d="M31.7353846,103.781818 L31.9384615,103.454545 C31.2738462,103.072727 30.6092308,102.672727 29.9630769,102.254545 L29.76,102.581818 C30.3876923,102.981818 31.0707692,103.381818 31.7353846,103.781818 Z" id="Shape"></path>
                <polygon id="Shape" points="37.9753846 106.890909 39.6369231 107.545455 39.6369231 107.109091 38.1784615 106.527273"></polygon>
                <path d="M35.8523077,105.945455 L36.0184615,105.6 C35.3169231,105.272727 34.6338462,104.927273 33.9507692,104.563636 L33.7661538,104.909091 C34.4492308,105.272727 35.0769231,105.618182 35.8523077,105.945455 Z" id="Shape"></path>
                <path d="M20.7507692,95.3636364 L21.0276923,95.0909091 C20.4923077,94.5454545 19.9569231,93.9818182 19.44,93.4181818 L19.1446154,93.6727273 C19.68,94.1818182 20.2153846,94.7454545 20.7507692,95.3636364 Z" id="Shape"></path>
                <path d="M17.7784615,26.0545455 C17.28,26.6363636 16.8,27.2545455 16.3384615,27.8727273 L16.6153846,28.0909091 C17.0769231,27.4909091 17.5569231,26.8909091 18.0369231,26.2727273 L17.7784615,26.0545455 Z" id="Shape"></path>
                <path d="M24.5538462,19.7818182 L24.2953846,19.4909091 C23.7046154,19.9818182 23.1323077,20.5090909 22.56,21.0181818 L22.8184615,21.2909091 C23.3907692,20.8181818 24,20.2727273 24.5538462,19.7818182 Z" id="Shape"></path>
                <path d="M20.8984615,22.6363636 C20.3630769,23.1818182 19.8276923,23.7454545 19.3107692,24.3090909 L19.6061538,24.5636364 C20.1230769,24 20.6584615,23.4363636 21.1938462,22.8909091 L20.8984615,22.6363636 Z" id="Shape"></path>
                <polygon id="Shape" points="27.6923077 16.9090909 26.16 18.0363636 26.4 18.3454545 27.6923077 17.3454545"></polygon>
                <polygon id="Shape" points="49.3107692 7.87272727 47.2430769 8.27272727 47.2430769 8.65454545 49.3292308 8.25454545"></polygon>
                <polygon id="Shape" points="60.9230769 110.945455 63.1938462 110.8 63.1938462 110.418182 60.9046154 110.563636"></polygon>
                <path d="M14.9723077,29.7272727 C14.5292308,30.3636364 14.1046154,31 13.6984615,31.6545455 L14.0307692,31.8545455 C14.4369231,31.2181818 14.8615385,30.5636364 15.3046154,29.9454545 L14.9723077,29.7272727 Z" id="Shape"></path>
                <path d="M12.5169231,33.5454545 C12.1292308,34.2181818 11.76,34.8909091 11.4276923,35.5818182 L11.7784615,35.7454545 C12.1292308,35.0727273 12.4984615,34.3818182 12.8676923,33.7272727 L12.5169231,33.5454545 Z" id="Shape"></path>
                <path d="M7.21846154,48.7454545 C7.36615385,48 7.55076923,47.2545455 7.73538462,46.5090909 L7.38461538,46.4363636 C7.2,47.1818182 7.01538462,47.9272727 6.86769231,48.6909091 L7.21846154,48.7454545 Z" id="Shape"></path>
                <path d="M10.7630769,37.8909091 L10.4123077,37.7272727 C10.0984615,38.4181818 9.78461538,39.1454545 9.50769231,39.8545455 L9.87692308,40 C10.1353846,39.2909091 10.4492308,38.5818182 10.7630769,37.8909091 Z" id="Shape"></path>
                <path d="M8.67692308,42.0181818 C8.41846154,42.7454545 8.17846154,43.4727273 7.95692308,44.2181818 L8.32615385,44.3272727 C8.54769231,43.6 8.78769231,42.8727273 9.04615385,42.1454545 L8.67692308,42.0181818 Z" id="Shape"></path>
                <path d="M108.756923,73.7818182 L109.126154,73.8909091 C109.347692,73.1636364 109.550769,72.4181818 109.753846,71.6727273 L109.384615,71.5818182 C109.181538,72.3272727 108.923077,73.0545455 108.756923,73.7818182 Z" id="Shape"></path>
                <path d="M105.803077,35.8545455 L105.452308,36.0181818 C105.803077,36.6909091 106.135385,37.4 106.430769,38.0909091 L106.781538,37.9454545 C106.486154,37.1818182 106.135385,36.5454545 105.803077,35.8545455 Z" id="Shape"></path>
                <path d="M97.9753846,24.4545455 L97.68,24.7090909 C98.1969231,25.2727273 98.6953846,25.8545455 99.1753846,26.5272727 L99.4707692,26.2909091 C99.0092308,25.6545455 98.4923077,25.0545455 97.9753846,24.4545455 Z" id="Shape"></path>
                <path d="M83.0769231,105.018182 C83.76,104.672727 84.4430769,104.290909 85.1076923,103.909091 L84.9230769,103.581818 C84.2584615,103.963636 83.5753846,104.327273 82.9107692,104.690909 L83.0769231,105.018182 Z" id="Shape"></path>
                <path d="M102.276923,29.9090909 C101.852308,29.2727273 101.390769,28.6545455 100.929231,28.0909091 L100.615385,28.3272727 C101.076923,28.9272727 101.52,29.5636364 101.963077,30.1454545 L102.276923,29.9090909 Z" id="Shape"></path>
                <polygon id="Shape" points="58.7076923 7.05454545 56.3815385 7.05454545 56.3815385 7.43636364 58.6892308 7.43636364"></polygon>
                <polygon id="Shape" points="54.0738462 7.63636364 54.0738462 7.25454545 51.6923077 7.49090909 51.6923077 7.49090909 51.6923077 7.87272727 51.6923077 7.87272727"></polygon>
                <polygon id="Shape" points="61.0338462 7.10909091 61.0338462 7.49090909 63.3415385 7.65454545 63.3415385 7.27272727"></polygon>
                <polygon id="Shape" points="77.0030769 10.3272727 74.7876923 9.5636364 74.6584615 9.9272727 76.8553846 10.6727273"></polygon>
                <polygon id="Shape" points="72.5538462 8.90909091 70.2830769 8.34545455 70.2830769 8.72727273 72.5353846 9.2909091"></polygon>
                <polygon id="Shape" points="67.9938462 7.89090909 65.6861538 7.52727273 65.6861538 7.90909091 67.9753846 8.27272727"></polygon>
                <path d="M103.532308,31.8545455 L103.2,32.0545455 C103.606154,32.6909091 103.993846,33.3636364 104.363077,34.0181818 L104.695385,33.8363636 C104.344615,33.1636364 103.938462,32.4909091 103.532308,31.8545455 Z" id="Shape"></path>
                <path d="M97.8461538,93.7818182 C98.3630769,93.2181818 98.88,92.6363636 99.36,91.9636364 L98.9907692,91.7272727 C98.5107692,92.3090909 97.9938462,92.8909091 97.4769231,93.5454545 L97.8461538,93.7818182 Z" id="Shape"></path>
                <path d="M100.726154,90.2363636 C101.187692,89.6181818 101.649231,89 102.092308,88.4181818 L101.778462,88.0909091 C101.335385,88.7090909 100.892308,89.3454545 100.430769,89.9090909 L100.726154,90.2363636 Z" id="Shape"></path>
                <path d="M103.384615,86.4545455 C103.790769,85.8 104.196923,85.1454545 104.566154,84.4727273 L104.233846,84.2909091 C103.864615,84.9454545 103.458462,85.6181818 103.052308,86.2545455 L103.384615,86.4545455 Z" id="Shape"></path>
                <path d="M87.1569231,102.636364 C87.8030769,102.218182 88.4492308,101.781818 89.0030769,101.345455 L88.7815385,101.036364 C88.1538462,101.472727 87.5076923,101.909091 86.9353846,102.309091 L87.1569231,102.636364 Z" id="Shape"></path>
                <path d="M105.655385,82.4363636 C106.006154,81.7636364 106.338462,81.0545455 106.670769,80.3636364 L106.32,80.2 C106.006154,80.8909091 105.673846,81.5818182 105.323077,82.2545455 L105.655385,82.4363636 Z" id="Shape"></path>
                <path d="M90.96,100.054545 C91.5692308,99.581818 92.1784615,99.090909 92.8061538,98.6 L92.5476923,98.3090909 C91.9569231,98.8 91.3661538,99.290909 90.7015385,99.745455 L90.96,100.054545 Z" id="Shape"></path>
                <path d="M94.5046154,97.0727273 C95.0769231,96.5454545 95.6307692,96.0181818 96.1661538,95.4727273 L95.8892308,95.2 C95.3538462,95.7454545 94.8,96.2727273 94.2276923,96.8 L94.5046154,97.0727273 Z" id="Shape"></path>
                <path d="M110.326154,51.2 L110.713846,51.2 C110.603077,50.4363636 110.455385,49.6727273 110.307692,48.9272727 L109.92,48.9272727 C110.067692,49.6909091 110.196923,50.4545455 110.326154,51.2 Z" id="Shape"></path>
                <path d="M108.406154,76.0909091 L108.036923,75.9636364 C107.778462,76.6727273 107.501538,77.4 107.224615,78.1090909 L107.593846,78.2545455 C107.870769,77.5454545 108.147692,76.8181818 108.406154,76.0909091 Z" id="Shape"></path>
                <path d="M107.686154,40.0545455 L107.316923,40.2 C107.593846,40.9090909 107.870769,41.6181818 108.110769,42.3454545 L108.48,42.2181818 C108.24,41.4909091 107.963077,40.8181818 107.686154,40.0545455 Z" id="Shape"></path>
                <path d="M109.2,44.4545455 L108.830769,44.5636364 C109.052308,45.2909091 109.255385,46.0363636 109.421538,46.7636364 L109.790769,46.7636364 C109.606154,45.8909091 109.403077,45.1454545 109.2,44.4545455 Z" id="Shape"></path>
                <path d="M110.769231,55.7272727 L111.156923,55.7272727 C111.156923,54.9636364 111.046154,54.2 110.953846,53.4363636 L110.566154,53.4363636 C110.769231,54.2181818 110.769231,54.9818182 110.769231,55.7272727 Z" id="Shape"></path>
                <path d="M109.883077,69.3454545 L110.270769,69.3454545 C110.418462,68.6 110.566154,67.8363636 110.695385,67.0909091 L110.307692,67.0909091 C110.178462,67.8545455 110.030769,68.6181818 109.883077,69.3454545 Z" id="Shape"></path>
                <path d="M111.193846,62.6363636 L110.769231,62.6363636 C110.769231,63.4 110.64,64.1636364 110.566154,64.9090909 L110.953846,64.9090909 C111.083077,64.1272727 111.156923,63.3636364 111.193846,62.6363636 Z" id="Shape"></path>
                <path d="M110.916923,60.2909091 L111.304615,60.2909091 C111.304615,59.5272727 111.304615,58.7454545 111.304615,58 L110.916923,58 C110.935385,58.7636364 110.935385,59.5454545 110.916923,60.2909091 Z" id="Shape"></path>
                <ellipse id="Oval" cx="66.9969231" cy="83.8" rx="1.73538462" ry="1.70909091"></ellipse>
                <path d="M61.5692308,101.890909 C85.3791066,101.21995 104.228527,81.8419916 103.887851,58.3856737 C103.547176,34.9293557 84.1426977,16.0902819 60.3230769,16.0902819 C36.5034562,16.0902819 17.0989782,34.9293557 16.7583026,58.3856737 C16.4176269,81.8419916 35.2670472,101.21995 59.0769231,101.890909 C59.9076923,101.963636 60.7384615,101.945455 61.5692308,101.890909 Z" id="Shape"></path>
                <ellipse id="Oval" cx="55.2184615" cy="83.8" rx="1.73538462" ry="1.70909091"></ellipse>
            </g>
            <g id="ICON-FEATURE_security-compliance" transform="translate(37.000000, 32.000000)">
                <path d="M34.9974027,6.12204957 C34.0894557,6.16657357 33.1833923,6.20553206 32.2792127,6.23892506 L32.2792127,6.23892506 L25.7804217,1.31345791 C23.7890631,-0.30992933 20.9194839,-0.35159175 18.8804009,1.21327892 L11.8673576,6.25562156 C10.963178,6.22222857 10.0571147,6.18327006 9.14916761,6.13874607 C4.02359935,5.88829859 0,4.45239969 0,11.3925777 C0,18.3327557 0.955039736,29.586196 0.955039736,29.586196 C0.955039736,29.586196 0.389927465,38.0290588 10.2850433,45.1695949 C18.8012852,51.2916444 22.0280762,53.5178442 22.0280762,53.5178442 L22.0280762,53.5178442 C22.0280762,53.5178442 25.3170296,51.2916444 33.8389226,45.1695949 C43.7396895,38.0401898 43.1689261,29.586196 43.1689261,29.586196 C43.1689261,29.586196 44.1239659,18.3327557 44.1239659,11.3925777 C44.1239659,4.45239969 40.122971,5.88829859 34.9974027,6.12204957" id="Shape" fill="#FFFFFF" fill-rule="nonzero"></path>
                <path d="M27.1253889,12.3888021 C20.5321889,9.77374322 13.0056975,12.5919413 9.8419399,18.8603679 C6.67818231,25.1287943 8.94117654,32.7392857 15.0385638,36.3367099 C21.1359511,39.934134 29.0170908,38.3086246 33.136409,32.6039735 C37.2557271,26.8993223 36.2278367,19.034087 30.7760142,14.5426505 L30.7760142,14.5426505 L20.038881,30.5323309 L14.2690848,22.9799479" id="Shape" stroke="#D0011B" stroke-width="2.5" stroke-linecap="round" stroke-linejoin="round"></path>
            </g>
        </g>
    </g>
</svg>