<?xml version="1.0" encoding="UTF-8"?>
<svg width="119px" height="118px" viewBox="0 0 119 118" version="1.1" xmlns="http://www.w3.org/2000/svg" xmlns:xlink="http://www.w3.org/1999/xlink">
    <!-- Generator: Sketch 44.1 (41455) - http://www.bohemiancoding.com/sketch -->
    <title>icon-1</title>
    <desc>Created with Sketch.</desc>
    <defs></defs>
    <g id="Page-1" stroke="none" stroke-width="1" fill="none" fill-rule="evenodd">
        <g id="icon-1" transform="translate(0.000000, -1.000000)" fill-rule="nonzero">
            <g id="Group" fill="#710ACA">
                <path d="M19.2,17.6181818 C31.3596672,6.5143634 47.7304103,1.01017882 64.2461538,2.47272727 L64.6153846,2.09090909 C63.5630769,1.98181818 62.4553846,1.81818182 61.3292308,1.81818182 C45.658002,1.21853549 30.3877804,6.78033416 18.8837545,17.2778916 C7.37972865,27.775449 0.586092642,42.347177 0,57.7818182 C0,58.8909091 0,60 0,61.0909091 L0.424615385,60.7090909 C0.201739109,44.3744647 7.02546268,28.7135098 19.2,17.6181818 L19.2,17.6181818 Z" id="Shape"></path>
                <path d="M102.110769,20.7272727 C105.01672,23.8369618 107.567372,27.2513396 109.716923,30.9090909 L110.030769,30.6181818 C104.777812,21.8037198 97.2820326,14.4904471 88.2830769,9.4 L87.9507692,9.70909091 C93.2213161,12.6379739 97.9982036,16.3549665 102.110769,20.7272727 Z" id="Shape"></path>
                <path d="M117.655385,52.4363636 L117.249231,52.8 C120.857908,81.0055139 103.091612,107.603806 75.3637666,115.507602 C47.6359208,123.411397 18.1908326,110.270664 5.94461538,84.5272727 L5.53846154,84.8181818 C17.0670449,109.240854 44.1085505,122.678706 70.9050765,117.301097 C97.7016025,111.923489 117.247939,89.1362451 118.153846,62.2181818 C118.26385,58.9496004 118.09712,55.6776751 117.655385,52.4363636 Z" id="Shape"></path>
                <path d="M16.4307692,36.9818182 C23.4473471,24.3810789 35.8387791,15.5496344 50.185542,12.9245985 C64.5323048,10.2995627 79.3176886,14.1584487 90.4615385,23.4363636 L90.72,23.1454545 C70.5474599,6.32911698 40.4698199,8.29157912 22.7261538,27.5818182 C20.0983715,30.4337741 17.8239679,33.5831217 15.9507692,36.9636364 L16.4307692,36.9818182 Z" id="Shape"></path>
                <path d="M25.2369231,94.4 C15.0564611,84.7270053 9.66361994,71.1637034 10.4676923,57.2545455 L10.1353846,57.2545455 C10.0440523,58.9685177 10.0440523,60.6860278 10.1353846,62.4 C10.6917325,74.6259482 15.9759366,86.1791399 24.9046154,94.6909091 L25.2369231,94.4 Z" id="Shape"></path>
                <path d="M101.704615,36.9818182 L102.184615,36.9818182 C101.692308,36.0848485 101.169231,35.2060606 100.615385,34.3454545 L100.338462,34.6545455 C100.818462,35.4181818 101.273846,36.1939394 101.704615,36.9818182 Z" id="Shape"></path>
                <path d="M108.036923,57.6181818 L108.036923,57.2363636 L107.630769,57.2363636 C108.658877,74.2711537 100.398368,90.5561721 85.9507391,99.977035 C71.5031099,109.397898 53.0547557,110.528923 37.5323077,102.945455 L37.2553846,103.254545 C52.8411764,110.876492 71.3612135,109.792139 85.920253,100.405205 C100.479292,91.018271 108.896074,74.735123 108.036923,57.6181818 Z" id="Shape"></path>
                <path d="M78.9230769,107.981818 C79.6430769,107.690909 80.3630769,107.381818 81.0646154,107.054545 L80.8984615,106.709091 C80.1969231,107.036364 79.4953846,107.345455 78.7753846,107.636364 L78.9230769,107.981818 Z" id="Shape"></path>
                <path d="M17.6492308,92.8545455 L17.9446154,92.6181818 C17.4646154,92.0363636 16.9846154,91.4363636 16.5230769,90.8 L16.2092308,91.0363636 C16.6153846,91.6545455 17.1507692,92.2727273 17.6492308,92.8545455 Z" id="Shape"></path>
                <path d="M14.7692308,89.0909091 L15.0830769,88.8727273 C14.6584615,88.2545455 14.2338462,87.6 13.8276923,86.9636364 L13.5876923,87.2727273 C13.9938462,87.9090909 14.4184615,88.5454545 14.7692308,89.0909091 Z" id="Shape"></path>
                <path d="M7.92,74.6909091 C8.14153846,75.4181818 8.38153846,76.1636364 8.62153846,76.8909091 L8.99076923,76.7636364 C8.75076923,76.0545455 8.51076923,75.3090909 8.28923077,74.5818182 L7.92,74.6909091 Z" id="Shape"></path>
                <path d="M22.4123077,97.8909091 C22.9846154,98.4181818 23.5569231,98.9272727 24.1476923,99.4181818 L24.4061538,99.1272727 C23.8153846,98.6363636 23.2430769,98.1272727 22.6892308,97.6 L22.4123077,97.8909091 Z" id="Shape"></path>
                <path d="M12.4246154,85.2727273 L12.7569231,85.0909091 C12.3876923,84.4363636 12.0184615,83.7454545 11.6676923,83.0727273 L11.3169231,83.2363636 C11.6676923,83.9272727 12.0369231,84.6 12.4246154,85.2727273 Z" id="Shape"></path>
                <path d="M10.3384615,81.1636364 L10.6892308,81 C10.3753846,80.3090909 10.08,79.6 9.80307692,78.8909091 L9.43384615,79.0363636 C9.71076923,79.7454545 10.0246154,80.4727273 10.3384615,81.1636364 Z" id="Shape"></path>
                <path d="M74.5292308,109.563636 C75.2676923,109.327273 76.0061538,109.090909 76.7446154,108.818182 L76.6153846,108.454545 L74.4184615,109.181818 L74.5292308,109.563636 Z" id="Shape"></path>
                <polygon id="Shape" points="65.4276923 111.545455 67.7353846 111.2 67.7353846 110.818182 65.4461538 111.163636"></polygon>
                <polygon id="Shape" points="70.0246154 110.745455 72.2953846 110.2 72.2030769 109.836364 69.9507692 110.381818"></polygon>
                <path d="M27.8215385,102.272727 L28.0430769,101.963636 C27.4153846,101.527273 26.7876923,101.054545 26.1969231,100.6 L25.9569231,100.909091 C26.5661538,101.363636 27.1938462,101.818182 27.8215385,102.272727 Z" id="Shape"></path>
                <path d="M31.7353846,104.781818 L31.9384615,104.454545 C31.2738462,104.072727 30.6092308,103.672727 29.9630769,103.254545 L29.76,103.581818 C30.3876923,103.981818 31.0707692,104.381818 31.7353846,104.781818 Z" id="Shape"></path>
                <polygon id="Shape" points="37.9753846 107.890909 39.6369231 108.545455 39.6369231 108.109091 38.1784615 107.527273"></polygon>
                <path d="M35.8523077,106.945455 L36.0184615,106.6 C35.3169231,106.272727 34.6338462,105.927273 33.9507692,105.563636 L33.7661538,105.909091 C34.4492308,106.272727 35.0769231,106.618182 35.8523077,106.945455 Z" id="Shape"></path>
                <path d="M20.7507692,96.3636364 L21.0276923,96.0909091 C20.4923077,95.5454545 19.9569231,94.9818182 19.44,94.4181818 L19.1446154,94.6727273 C19.68,95.1818182 20.2153846,95.7454545 20.7507692,96.3636364 Z" id="Shape"></path>
                <path d="M17.7784615,27.0545455 C17.28,27.6363636 16.8,28.2545455 16.3384615,28.8727273 L16.6153846,29.0909091 C17.0769231,28.4909091 17.5569231,27.8909091 18.0369231,27.2727273 L17.7784615,27.0545455 Z" id="Shape"></path>
                <path d="M24.5538462,20.7818182 L24.2953846,20.4909091 C23.7046154,20.9818182 23.1323077,21.5090909 22.56,22.0181818 L22.8184615,22.2909091 C23.3907692,21.8181818 24,21.2727273 24.5538462,20.7818182 Z" id="Shape"></path>
                <path d="M20.8984615,23.6363636 C20.3630769,24.1818182 19.8276923,24.7454545 19.3107692,25.3090909 L19.6061538,25.5636364 C20.1230769,25 20.6584615,24.4363636 21.1938462,23.8909091 L20.8984615,23.6363636 Z" id="Shape"></path>
                <polygon id="Shape" points="27.6923077 17.9090909 26.16 19.0363636 26.4 19.3454545 27.6923077 18.3454545"></polygon>
                <polygon id="Shape" points="49.3107692 8.87272727 47.2430769 9.27272727 47.2430769 9.65454545 49.3292308 9.25454545"></polygon>
                <polygon id="Shape" points="60.9230769 111.945455 63.1938462 111.8 63.1938462 111.418182 60.9046154 111.563636"></polygon>
                <path d="M14.9723077,30.7272727 C14.5292308,31.3636364 14.1046154,32 13.6984615,32.6545455 L14.0307692,32.8545455 C14.4369231,32.2181818 14.8615385,31.5636364 15.3046154,30.9454545 L14.9723077,30.7272727 Z" id="Shape"></path>
                <path d="M12.5169231,34.5454545 C12.1292308,35.2181818 11.76,35.8909091 11.4276923,36.5818182 L11.7784615,36.7454545 C12.1292308,36.0727273 12.4984615,35.3818182 12.8676923,34.7272727 L12.5169231,34.5454545 Z" id="Shape"></path>
                <path d="M7.21846154,49.7454545 C7.36615385,49 7.55076923,48.2545455 7.73538462,47.5090909 L7.38461538,47.4363636 C7.2,48.1818182 7.01538462,48.9272727 6.86769231,49.6909091 L7.21846154,49.7454545 Z" id="Shape"></path>
                <path d="M10.7630769,38.8909091 L10.4123077,38.7272727 C10.0984615,39.4181818 9.78461538,40.1454545 9.50769231,40.8545455 L9.87692308,41 C10.1353846,40.2909091 10.4492308,39.5818182 10.7630769,38.8909091 Z" id="Shape"></path>
                <path d="M8.67692308,43.0181818 C8.41846154,43.7454545 8.17846154,44.4727273 7.95692308,45.2181818 L8.32615385,45.3272727 C8.54769231,44.6 8.78769231,43.8727273 9.04615385,43.1454545 L8.67692308,43.0181818 Z" id="Shape"></path>
                <path d="M108.756923,74.7818182 L109.126154,74.8909091 C109.347692,74.1636364 109.550769,73.4181818 109.753846,72.6727273 L109.384615,72.5818182 C109.181538,73.3272727 108.923077,74.0545455 108.756923,74.7818182 Z" id="Shape"></path>
                <path d="M105.803077,36.8545455 L105.452308,37.0181818 C105.803077,37.6909091 106.135385,38.4 106.430769,39.0909091 L106.781538,38.9454545 C106.486154,38.1818182 106.135385,37.5454545 105.803077,36.8545455 Z" id="Shape"></path>
                <path d="M97.9753846,25.4545455 L97.68,25.7090909 C98.1969231,26.2727273 98.6953846,26.8545455 99.1753846,27.5272727 L99.4707692,27.2909091 C99.0092308,26.6545455 98.4923077,26.0545455 97.9753846,25.4545455 Z" id="Shape"></path>
                <path d="M83.0769231,106.018182 C83.76,105.672727 84.4430769,105.290909 85.1076923,104.909091 L84.9230769,104.581818 C84.2584615,104.963636 83.5753846,105.327273 82.9107692,105.690909 L83.0769231,106.018182 Z" id="Shape"></path>
                <path d="M102.276923,30.9090909 C101.852308,30.2727273 101.390769,29.6545455 100.929231,29.0909091 L100.615385,29.3272727 C101.076923,29.9272727 101.52,30.5636364 101.963077,31.1454545 L102.276923,30.9090909 Z" id="Shape"></path>
                <polygon id="Shape" points="58.7076923 8.05454545 56.3815385 8.05454545 56.3815385 8.43636364 58.6892308 8.43636364"></polygon>
                <polygon id="Shape" points="54.0738462 8.63636364 54.0738462 8.25454545 51.6923077 8.49090909 51.6923077 8.49090909 51.6923077 8.87272727 51.6923077 8.87272727"></polygon>
                <polygon id="Shape" points="61.0338462 8.10909091 61.0338462 8.49090909 63.3415385 8.65454545 63.3415385 8.27272727"></polygon>
                <polygon id="Shape" points="77.0030769 11.3272727 74.7876923 10.5636364 74.6584615 10.9272727 76.8553846 11.6727273"></polygon>
                <polygon id="Shape" points="72.5538462 9.90909091 70.2830769 9.34545455 70.2830769 9.72727273 72.5353846 10.2909091"></polygon>
                <polygon id="Shape" points="67.9938462 8.89090909 65.6861538 8.52727273 65.6861538 8.90909091 67.9753846 9.27272727"></polygon>
                <path d="M103.532308,32.8545455 L103.2,33.0545455 C103.606154,33.6909091 103.993846,34.3636364 104.363077,35.0181818 L104.695385,34.8363636 C104.344615,34.1636364 103.938462,33.4909091 103.532308,32.8545455 Z" id="Shape"></path>
                <path d="M97.8461538,94.7818182 C98.3630769,94.2181818 98.88,93.6363636 99.36,92.9636364 L98.9907692,92.7272727 C98.5107692,93.3090909 97.9938462,93.8909091 97.4769231,94.5454545 L97.8461538,94.7818182 Z" id="Shape"></path>
                <path d="M100.726154,91.2363636 C101.187692,90.6181818 101.649231,90 102.092308,89.4181818 L101.778462,89.0909091 C101.335385,89.7090909 100.892308,90.3454545 100.430769,90.9090909 L100.726154,91.2363636 Z" id="Shape"></path>
                <path d="M103.384615,87.4545455 C103.790769,86.8 104.196923,86.1454545 104.566154,85.4727273 L104.233846,85.2909091 C103.864615,85.9454545 103.458462,86.6181818 103.052308,87.2545455 L103.384615,87.4545455 Z" id="Shape"></path>
                <path d="M87.1569231,103.636364 C87.8030769,103.218182 88.4492308,102.781818 89.0030769,102.345455 L88.7815385,102.036364 C88.1538462,102.472727 87.5076923,102.909091 86.9353846,103.309091 L87.1569231,103.636364 Z" id="Shape"></path>
                <path d="M105.655385,83.4363636 C106.006154,82.7636364 106.338462,82.0545455 106.670769,81.3636364 L106.32,81.2 C106.006154,81.8909091 105.673846,82.5818182 105.323077,83.2545455 L105.655385,83.4363636 Z" id="Shape"></path>
                <path d="M90.96,101.054545 C91.5692308,100.581818 92.1784615,100.090909 92.8061538,99.6 L92.5476923,99.3090909 C91.9569231,99.8 91.3661538,100.290909 90.7015385,100.745455 L90.96,101.054545 Z" id="Shape"></path>
                <path d="M94.5046154,98.0727273 C95.0769231,97.5454545 95.6307692,97.0181818 96.1661538,96.4727273 L95.8892308,96.2 C95.3538462,96.7454545 94.8,97.2727273 94.2276923,97.8 L94.5046154,98.0727273 Z" id="Shape"></path>
                <path d="M110.326154,52.2 L110.713846,52.2 C110.603077,51.4363636 110.455385,50.6727273 110.307692,49.9272727 L109.92,49.9272727 C110.067692,50.6909091 110.196923,51.4545455 110.326154,52.2 Z" id="Shape"></path>
                <path d="M108.406154,77.0909091 L108.036923,76.9636364 C107.778462,77.6727273 107.501538,78.4 107.224615,79.1090909 L107.593846,79.2545455 C107.870769,78.5454545 108.147692,77.8181818 108.406154,77.0909091 Z" id="Shape"></path>
                <path d="M107.686154,41.0545455 L107.316923,41.2 C107.593846,41.9090909 107.870769,42.6181818 108.110769,43.3454545 L108.48,43.2181818 C108.24,42.4909091 107.963077,41.8181818 107.686154,41.0545455 Z" id="Shape"></path>
                <path d="M109.2,45.4545455 L108.830769,45.5636364 C109.052308,46.2909091 109.255385,47.0363636 109.421538,47.7636364 L109.790769,47.7636364 C109.606154,46.8909091 109.403077,46.1454545 109.2,45.4545455 Z" id="Shape"></path>
                <path d="M110.769231,56.7272727 L111.156923,56.7272727 C111.156923,55.9636364 111.046154,55.2 110.953846,54.4363636 L110.566154,54.4363636 C110.769231,55.2181818 110.769231,55.9818182 110.769231,56.7272727 Z" id="Shape"></path>
                <path d="M109.883077,70.3454545 L110.270769,70.3454545 C110.418462,69.6 110.566154,68.8363636 110.695385,68.0909091 L110.307692,68.0909091 C110.178462,68.8545455 110.030769,69.6181818 109.883077,70.3454545 Z" id="Shape"></path>
                <path d="M111.193846,63.6363636 L110.769231,63.6363636 C110.769231,64.4 110.64,65.1636364 110.566154,65.9090909 L110.953846,65.9090909 C111.083077,65.1272727 111.156923,64.3636364 111.193846,63.6363636 Z" id="Shape"></path>
                <path d="M110.916923,61.2909091 L111.304615,61.2909091 C111.304615,60.5272727 111.304615,59.7454545 111.304615,59 L110.916923,59 C110.935385,59.7636364 110.935385,60.5454545 110.916923,61.2909091 Z" id="Shape"></path>
                <path d="" id="Shape"></path>
                <ellipse id="Oval" cx="66.9969231" cy="84.8" rx="1.73538462" ry="1.70909091"></ellipse>
                <path d="M61.5692308,102.890909 C85.3791066,102.21995 104.228527,82.8419916 103.887851,59.3856737 C103.547176,35.9293557 84.1426977,17.0902819 60.3230769,17.0902819 C36.5034562,17.0902819 17.0989782,35.9293557 16.7583026,59.3856737 C16.4176269,82.8419916 35.2670472,102.21995 59.0769231,102.890909 C59.9076923,102.963636 60.7384615,102.945455 61.5692308,102.890909 Z" id="Shape"></path>
                <ellipse id="Oval" cx="55.2184615" cy="84.8" rx="1.73538462" ry="1.70909091"></ellipse>
            </g>
            <g id="transparent-pricing" transform="translate(35.000000, 34.000000)">
                <path d="M50.6,49.9 L39.8,39.1 C43.6,35 45.9,29.5 45.9,23.5 C45.9,10.9 35.6,0.6 22.9,0.6 C10.3,0.6 0,10.9 0,23.5 C0,36.1 10.3,46.4 22.9,46.4 C28.5,46.4 33.6,44.4 37.6,41.1 L48.5,52 L50.6,49.9 Z M3,23.5 C3,12.5 11.9,3.6 22.9,3.6 C33.9,3.6 42.8,12.5 42.8,23.5 C42.8,34.5 33.9,43.4 22.9,43.4 C11.9,43.5 3,34.5 3,23.5 Z" id="Shape" fill="#FFFFFF"></path>
                <path d="M27.8,31.8 C27.5,32.3 27.1,32.8 26.7,33.1 C26.3,33.4 25.8,33.7 25.3,33.8 C25.2,33.8 25.1,33.8 24.9,33.9 L24.9,25.6 C25.7,26 26.4,26.4 27,26.9 C27.8,27.6 28.3,28.6 28.2,29.7 C28.2,30.5 28.1,31.2 27.8,31.8 L27.8,31.8 Z M21.8,21.9 C21.4,21.7 21,21.6 20.6,21.4 C20.1,21.2 19.7,20.9 19.3,20.5 C18.9,20.2 18.6,19.8 18.4,19.4 C18.2,19 18.1,18.5 18.1,17.9 C18.1,17.3 18.2,16.8 18.4,16.3 C18.6,15.8 18.9,15.4 19.2,15 C19.6,14.6 20,14.3 20.5,14.1 C20.9,13.9 21.3,13.8 21.7,13.7 L21.8,21.9 L21.8,21.9 Z M30,26.9 C29.6,26.1 29.1,25.5 28.4,24.9 C27.7,24.4 27,23.9 26.2,23.5 C25.7,23.3 25.3,23.1 24.8,22.9 L24.8,13.6 C25.3,13.7 25.7,13.8 26.2,14 C27,14.4 27.6,14.9 28.1,15.7 L30,14.1 C29.7,13.7 29.3,13.4 28.9,13 C28.5,12.7 28.1,12.3 27.6,12.1 C27.1,11.8 26.6,11.6 25.9,11.5 C25.6,11.4 25.2,11.4 24.8,11.3 L24.8,8.7 L21.7,8.7 L21.7,11.6 C21,11.7 20.3,11.9 19.7,12.1 C18.9,12.4 18.2,12.9 17.6,13.4 C17,14 16.5,14.6 16.1,15.4 C15.7,16.2 15.5,17.1 15.5,18 C15.5,19 15.7,19.9 16.1,20.7 C16.5,21.4 17,22.1 17.6,22.6 C18.2,23.1 18.9,23.5 19.7,23.9 C20.3,24.2 21,24.4 21.6,24.6 L21.6,34.1 C21.3,34.1 21.1,34 20.8,33.9 C20.4,33.8 19.9,33.6 19.5,33.3 C19,33.1 18.6,32.8 18.2,32.4 C17.8,32 17.4,31.6 17,31.2 L15,32.6 C15.7,33.6 16.6,34.4 17.9,35.1 C19,35.7 20.3,36.1 21.7,36.2 L21.7,38.8 L24.8,38.8 L24.8,36 C25.4,35.9 25.9,35.8 26.4,35.5 C27.2,35.2 27.9,34.7 28.6,34.2 C29.2,33.6 29.7,33 30,32.2 C30.3,31.4 30.5,30.6 30.5,29.6 C30.6,28.6 30.4,27.7 30,26.9 L30,26.9 Z" id="Shape" fill="#F8E81C"></path>
            </g>
        </g>
    </g>
</svg>