<?xml version="1.0" encoding="UTF-8"?>
<svg width="119px" height="118px" viewBox="0 0 119 118" version="1.1" xmlns="http://www.w3.org/2000/svg" xmlns:xlink="http://www.w3.org/1999/xlink">
    <!-- Generator: Sketch 44.1 (41455) - http://www.bohemiancoding.com/sketch -->
    <title>icon-1</title>
    <desc>Created with Sketch.</desc>
    <defs></defs>
    <g id="Page-1" stroke="none" stroke-width="1" fill="none" fill-rule="evenodd">
        <g id="icon-1" transform="translate(0.000000, -1.000000)" fill-rule="nonzero">
            <g id="Group" fill="#F08917">
                <path d="M19.2,17.6181818 C31.3596672,6.5143634 47.7304103,1.01017882 64.2461538,2.47272727 L64.6153846,2.09090909 C63.5630769,1.98181818 62.4553846,1.81818182 61.3292308,1.81818182 C45.658002,1.21853549 30.3877804,6.78033416 18.8837545,17.2778916 C7.37972865,27.775449 0.586092642,42.347177 0,57.7818182 C0,58.8909091 0,60 0,61.0909091 L0.424615385,60.7090909 C0.201739109,44.3744647 7.02546268,28.7135098 19.2,17.6181818 L19.2,17.6181818 Z" id="Shape"></path>
                <path d="M102.110769,20.7272727 C105.01672,23.8369618 107.567372,27.2513396 109.716923,30.9090909 L110.030769,30.6181818 C104.777812,21.8037198 97.2820326,14.4904471 88.2830769,9.4 L87.9507692,9.70909091 C93.2213161,12.6379739 97.9982036,16.3549665 102.110769,20.7272727 Z" id="Shape"></path>
                <path d="M117.655385,52.4363636 L117.249231,52.8 C120.857908,81.0055139 103.091612,107.603806 75.3637666,115.507602 C47.6359208,123.411397 18.1908326,110.270664 5.94461538,84.5272727 L5.53846154,84.8181818 C17.0670449,109.240854 44.1085505,122.678706 70.9050765,117.301097 C97.7016025,111.923489 117.247939,89.1362451 118.153846,62.2181818 C118.26385,58.9496004 118.09712,55.6776751 117.655385,52.4363636 Z" id="Shape"></path>
                <path d="M16.4307692,36.9818182 C23.4473471,24.3810789 35.8387791,15.5496344 50.185542,12.9245985 C64.5323048,10.2995627 79.3176886,14.1584487 90.4615385,23.4363636 L90.72,23.1454545 C70.5474599,6.32911698 40.4698199,8.29157912 22.7261538,27.5818182 C20.0983715,30.4337741 17.8239679,33.5831217 15.9507692,36.9636364 L16.4307692,36.9818182 Z" id="Shape"></path>
                <path d="M25.2369231,94.4 C15.0564611,84.7270053 9.66361994,71.1637034 10.4676923,57.2545455 L10.1353846,57.2545455 C10.0440523,58.9685177 10.0440523,60.6860278 10.1353846,62.4 C10.6917325,74.6259482 15.9759366,86.1791399 24.9046154,94.6909091 L25.2369231,94.4 Z" id="Shape"></path>
                <path d="M101.704615,36.9818182 L102.184615,36.9818182 C101.692308,36.0848485 101.169231,35.2060606 100.615385,34.3454545 L100.338462,34.6545455 C100.818462,35.4181818 101.273846,36.1939394 101.704615,36.9818182 Z" id="Shape"></path>
                <path d="M108.036923,57.6181818 L108.036923,57.2363636 L107.630769,57.2363636 C108.658877,74.2711537 100.398368,90.5561721 85.9507391,99.977035 C71.5031099,109.397898 53.0547557,110.528923 37.5323077,102.945455 L37.2553846,103.254545 C52.8411764,110.876492 71.3612135,109.792139 85.920253,100.405205 C100.479292,91.018271 108.896074,74.735123 108.036923,57.6181818 Z" id="Shape"></path>
                <path d="M78.9230769,107.981818 C79.6430769,107.690909 80.3630769,107.381818 81.0646154,107.054545 L80.8984615,106.709091 C80.1969231,107.036364 79.4953846,107.345455 78.7753846,107.636364 L78.9230769,107.981818 Z" id="Shape"></path>
                <path d="M17.6492308,92.8545455 L17.9446154,92.6181818 C17.4646154,92.0363636 16.9846154,91.4363636 16.5230769,90.8 L16.2092308,91.0363636 C16.6153846,91.6545455 17.1507692,92.2727273 17.6492308,92.8545455 Z" id="Shape"></path>
                <path d="M14.7692308,89.0909091 L15.0830769,88.8727273 C14.6584615,88.2545455 14.2338462,87.6 13.8276923,86.9636364 L13.5876923,87.2727273 C13.9938462,87.9090909 14.4184615,88.5454545 14.7692308,89.0909091 Z" id="Shape"></path>
                <path d="M7.92,74.6909091 C8.14153846,75.4181818 8.38153846,76.1636364 8.62153846,76.8909091 L8.99076923,76.7636364 C8.75076923,76.0545455 8.51076923,75.3090909 8.28923077,74.5818182 L7.92,74.6909091 Z" id="Shape"></path>
                <path d="M22.4123077,97.8909091 C22.9846154,98.4181818 23.5569231,98.9272727 24.1476923,99.4181818 L24.4061538,99.1272727 C23.8153846,98.6363636 23.2430769,98.1272727 22.6892308,97.6 L22.4123077,97.8909091 Z" id="Shape"></path>
                <path d="M12.4246154,85.2727273 L12.7569231,85.0909091 C12.3876923,84.4363636 12.0184615,83.7454545 11.6676923,83.0727273 L11.3169231,83.2363636 C11.6676923,83.9272727 12.0369231,84.6 12.4246154,85.2727273 Z" id="Shape"></path>
                <path d="M10.3384615,81.1636364 L10.6892308,81 C10.3753846,80.3090909 10.08,79.6 9.80307692,78.8909091 L9.43384615,79.0363636 C9.71076923,79.7454545 10.0246154,80.4727273 10.3384615,81.1636364 Z" id="Shape"></path>
                <path d="M74.5292308,109.563636 C75.2676923,109.327273 76.0061538,109.090909 76.7446154,108.818182 L76.6153846,108.454545 L74.4184615,109.181818 L74.5292308,109.563636 Z" id="Shape"></path>
                <polygon id="Shape" points="65.4276923 111.545455 67.7353846 111.2 67.7353846 110.818182 65.4461538 111.163636"></polygon>
                <polygon id="Shape" points="70.0246154 110.745455 72.2953846 110.2 72.2030769 109.836364 69.9507692 110.381818"></polygon>
                <path d="M27.8215385,102.272727 L28.0430769,101.963636 C27.4153846,101.527273 26.7876923,101.054545 26.1969231,100.6 L25.9569231,100.909091 C26.5661538,101.363636 27.1938462,101.818182 27.8215385,102.272727 Z" id="Shape"></path>
                <path d="M31.7353846,104.781818 L31.9384615,104.454545 C31.2738462,104.072727 30.6092308,103.672727 29.9630769,103.254545 L29.76,103.581818 C30.3876923,103.981818 31.0707692,104.381818 31.7353846,104.781818 Z" id="Shape"></path>
                <polygon id="Shape" points="37.9753846 107.890909 39.6369231 108.545455 39.6369231 108.109091 38.1784615 107.527273"></polygon>
                <path d="M35.8523077,106.945455 L36.0184615,106.6 C35.3169231,106.272727 34.6338462,105.927273 33.9507692,105.563636 L33.7661538,105.909091 C34.4492308,106.272727 35.0769231,106.618182 35.8523077,106.945455 Z" id="Shape"></path>
                <path d="M20.7507692,96.3636364 L21.0276923,96.0909091 C20.4923077,95.5454545 19.9569231,94.9818182 19.44,94.4181818 L19.1446154,94.6727273 C19.68,95.1818182 20.2153846,95.7454545 20.7507692,96.3636364 Z" id="Shape"></path>
                <path d="M17.7784615,27.0545455 C17.28,27.6363636 16.8,28.2545455 16.3384615,28.8727273 L16.6153846,29.0909091 C17.0769231,28.4909091 17.5569231,27.8909091 18.0369231,27.2727273 L17.7784615,27.0545455 Z" id="Shape"></path>
                <path d="M24.5538462,20.7818182 L24.2953846,20.4909091 C23.7046154,20.9818182 23.1323077,21.5090909 22.56,22.0181818 L22.8184615,22.2909091 C23.3907692,21.8181818 24,21.2727273 24.5538462,20.7818182 Z" id="Shape"></path>
                <path d="M20.8984615,23.6363636 C20.3630769,24.1818182 19.8276923,24.7454545 19.3107692,25.3090909 L19.6061538,25.5636364 C20.1230769,25 20.6584615,24.4363636 21.1938462,23.8909091 L20.8984615,23.6363636 Z" id="Shape"></path>
                <polygon id="Shape" points="27.6923077 17.9090909 26.16 19.0363636 26.4 19.3454545 27.6923077 18.3454545"></polygon>
                <polygon id="Shape" points="49.3107692 8.87272727 47.2430769 9.27272727 47.2430769 9.65454545 49.3292308 9.25454545"></polygon>
                <polygon id="Shape" points="60.9230769 111.945455 63.1938462 111.8 63.1938462 111.418182 60.9046154 111.563636"></polygon>
                <path d="M14.9723077,30.7272727 C14.5292308,31.3636364 14.1046154,32 13.6984615,32.6545455 L14.0307692,32.8545455 C14.4369231,32.2181818 14.8615385,31.5636364 15.3046154,30.9454545 L14.9723077,30.7272727 Z" id="Shape"></path>
                <path d="M12.5169231,34.5454545 C12.1292308,35.2181818 11.76,35.8909091 11.4276923,36.5818182 L11.7784615,36.7454545 C12.1292308,36.0727273 12.4984615,35.3818182 12.8676923,34.7272727 L12.5169231,34.5454545 Z" id="Shape"></path>
                <path d="M7.21846154,49.7454545 C7.36615385,49 7.55076923,48.2545455 7.73538462,47.5090909 L7.38461538,47.4363636 C7.2,48.1818182 7.01538462,48.9272727 6.86769231,49.6909091 L7.21846154,49.7454545 Z" id="Shape"></path>
                <path d="M10.7630769,38.8909091 L10.4123077,38.7272727 C10.0984615,39.4181818 9.78461538,40.1454545 9.50769231,40.8545455 L9.87692308,41 C10.1353846,40.2909091 10.4492308,39.5818182 10.7630769,38.8909091 Z" id="Shape"></path>
                <path d="M8.67692308,43.0181818 C8.41846154,43.7454545 8.17846154,44.4727273 7.95692308,45.2181818 L8.32615385,45.3272727 C8.54769231,44.6 8.78769231,43.8727273 9.04615385,43.1454545 L8.67692308,43.0181818 Z" id="Shape"></path>
                <path d="M108.756923,74.7818182 L109.126154,74.8909091 C109.347692,74.1636364 109.550769,73.4181818 109.753846,72.6727273 L109.384615,72.5818182 C109.181538,73.3272727 108.923077,74.0545455 108.756923,74.7818182 Z" id="Shape"></path>
                <path d="M105.803077,36.8545455 L105.452308,37.0181818 C105.803077,37.6909091 106.135385,38.4 106.430769,39.0909091 L106.781538,38.9454545 C106.486154,38.1818182 106.135385,37.5454545 105.803077,36.8545455 Z" id="Shape"></path>
                <path d="M97.9753846,25.4545455 L97.68,25.7090909 C98.1969231,26.2727273 98.6953846,26.8545455 99.1753846,27.5272727 L99.4707692,27.2909091 C99.0092308,26.6545455 98.4923077,26.0545455 97.9753846,25.4545455 Z" id="Shape"></path>
                <path d="M83.0769231,106.018182 C83.76,105.672727 84.4430769,105.290909 85.1076923,104.909091 L84.9230769,104.581818 C84.2584615,104.963636 83.5753846,105.327273 82.9107692,105.690909 L83.0769231,106.018182 Z" id="Shape"></path>
                <path d="M102.276923,30.9090909 C101.852308,30.2727273 101.390769,29.6545455 100.929231,29.0909091 L100.615385,29.3272727 C101.076923,29.9272727 101.52,30.5636364 101.963077,31.1454545 L102.276923,30.9090909 Z" id="Shape"></path>
                <polygon id="Shape" points="58.7076923 8.05454545 56.3815385 8.05454545 56.3815385 8.43636364 58.6892308 8.43636364"></polygon>
                <polygon id="Shape" points="54.0738462 8.63636364 54.0738462 8.25454545 51.6923077 8.49090909 51.6923077 8.49090909 51.6923077 8.87272727 51.6923077 8.87272727"></polygon>
                <polygon id="Shape" points="61.0338462 8.10909091 61.0338462 8.49090909 63.3415385 8.65454545 63.3415385 8.27272727"></polygon>
                <polygon id="Shape" points="77.0030769 11.3272727 74.7876923 10.5636364 74.6584615 10.9272727 76.8553846 11.6727273"></polygon>
                <polygon id="Shape" points="72.5538462 9.90909091 70.2830769 9.34545455 70.2830769 9.72727273 72.5353846 10.2909091"></polygon>
                <polygon id="Shape" points="67.9938462 8.89090909 65.6861538 8.52727273 65.6861538 8.90909091 67.9753846 9.27272727"></polygon>
                <path d="M103.532308,32.8545455 L103.2,33.0545455 C103.606154,33.6909091 103.993846,34.3636364 104.363077,35.0181818 L104.695385,34.8363636 C104.344615,34.1636364 103.938462,33.4909091 103.532308,32.8545455 Z" id="Shape"></path>
                <path d="M97.8461538,94.7818182 C98.3630769,94.2181818 98.88,93.6363636 99.36,92.9636364 L98.9907692,92.7272727 C98.5107692,93.3090909 97.9938462,93.8909091 97.4769231,94.5454545 L97.8461538,94.7818182 Z" id="Shape"></path>
                <path d="M100.726154,91.2363636 C101.187692,90.6181818 101.649231,90 102.092308,89.4181818 L101.778462,89.0909091 C101.335385,89.7090909 100.892308,90.3454545 100.430769,90.9090909 L100.726154,91.2363636 Z" id="Shape"></path>
                <path d="M103.384615,87.4545455 C103.790769,86.8 104.196923,86.1454545 104.566154,85.4727273 L104.233846,85.2909091 C103.864615,85.9454545 103.458462,86.6181818 103.052308,87.2545455 L103.384615,87.4545455 Z" id="Shape"></path>
                <path d="M87.1569231,103.636364 C87.8030769,103.218182 88.4492308,102.781818 89.0030769,102.345455 L88.7815385,102.036364 C88.1538462,102.472727 87.5076923,102.909091 86.9353846,103.309091 L87.1569231,103.636364 Z" id="Shape"></path>
                <path d="M105.655385,83.4363636 C106.006154,82.7636364 106.338462,82.0545455 106.670769,81.3636364 L106.32,81.2 C106.006154,81.8909091 105.673846,82.5818182 105.323077,83.2545455 L105.655385,83.4363636 Z" id="Shape"></path>
                <path d="M90.96,101.054545 C91.5692308,100.581818 92.1784615,100.090909 92.8061538,99.6 L92.5476923,99.3090909 C91.9569231,99.8 91.3661538,100.290909 90.7015385,100.745455 L90.96,101.054545 Z" id="Shape"></path>
                <path d="M94.5046154,98.0727273 C95.0769231,97.5454545 95.6307692,97.0181818 96.1661538,96.4727273 L95.8892308,96.2 C95.3538462,96.7454545 94.8,97.2727273 94.2276923,97.8 L94.5046154,98.0727273 Z" id="Shape"></path>
                <path d="M110.326154,52.2 L110.713846,52.2 C110.603077,51.4363636 110.455385,50.6727273 110.307692,49.9272727 L109.92,49.9272727 C110.067692,50.6909091 110.196923,51.4545455 110.326154,52.2 Z" id="Shape"></path>
                <path d="M108.406154,77.0909091 L108.036923,76.9636364 C107.778462,77.6727273 107.501538,78.4 107.224615,79.1090909 L107.593846,79.2545455 C107.870769,78.5454545 108.147692,77.8181818 108.406154,77.0909091 Z" id="Shape"></path>
                <path d="M107.686154,41.0545455 L107.316923,41.2 C107.593846,41.9090909 107.870769,42.6181818 108.110769,43.3454545 L108.48,43.2181818 C108.24,42.4909091 107.963077,41.8181818 107.686154,41.0545455 Z" id="Shape"></path>
                <path d="M109.2,45.4545455 L108.830769,45.5636364 C109.052308,46.2909091 109.255385,47.0363636 109.421538,47.7636364 L109.790769,47.7636364 C109.606154,46.8909091 109.403077,46.1454545 109.2,45.4545455 Z" id="Shape"></path>
                <path d="M110.769231,56.7272727 L111.156923,56.7272727 C111.156923,55.9636364 111.046154,55.2 110.953846,54.4363636 L110.566154,54.4363636 C110.769231,55.2181818 110.769231,55.9818182 110.769231,56.7272727 Z" id="Shape"></path>
                <path d="M109.883077,70.3454545 L110.270769,70.3454545 C110.418462,69.6 110.566154,68.8363636 110.695385,68.0909091 L110.307692,68.0909091 C110.178462,68.8545455 110.030769,69.6181818 109.883077,70.3454545 Z" id="Shape"></path>
                <path d="M111.193846,63.6363636 L110.769231,63.6363636 C110.769231,64.4 110.64,65.1636364 110.566154,65.9090909 L110.953846,65.9090909 C111.083077,65.1272727 111.156923,64.3636364 111.193846,63.6363636 Z" id="Shape"></path>
                <path d="M110.916923,61.2909091 L111.304615,61.2909091 C111.304615,60.5272727 111.304615,59.7454545 111.304615,59 L110.916923,59 C110.935385,59.7636364 110.935385,60.5454545 110.916923,61.2909091 Z" id="Shape"></path>
                <path d="" id="Shape"></path>
                <ellipse id="Oval" cx="66.9969231" cy="84.8" rx="1.73538462" ry="1.70909091"></ellipse>
                <path d="M61.5692308,102.890909 C85.3791066,102.21995 104.228527,82.8419916 103.887851,59.3856737 C103.547176,35.9293557 84.1426977,17.0902819 60.3230769,17.0902819 C36.5034562,17.0902819 17.0989782,35.9293557 16.7583026,59.3856737 C16.4176269,82.8419916 35.2670472,102.21995 59.0769231,102.890909 C59.9076923,102.963636 60.7384615,102.945455 61.5692308,102.890909 Z" id="Shape"></path>
                <ellipse id="Oval" cx="55.2184615" cy="84.8" rx="1.73538462" ry="1.70909091"></ellipse>
            </g>
            <g id="45880" transform="translate(33.000000, 39.000000)" fill="#FFFFFF">
                <path d="M2.10529412,28.1884314 L2.10529412,2.66058824 C2.10529412,1.24205882 3.25519608,0.0920588235 4.67382353,0.0920588235 L30.1885294,0.0920588235 C31.6070588,0.0920588235 32.7569608,1.24205882 32.7569608,2.66058824 L32.7569608,28.1885294 C32.7569608,28.6613725 32.3737255,29.0447059 31.9007843,29.0447059 L2.96147059,29.0447059 C2.48852941,29.0447059 2.10529412,28.6613725 2.10529412,28.1884314 Z M22.7092157,36.9337255 C22.7092157,39.8758824 20.3240196,42.2609804 17.3819608,42.2609804 C14.439902,42.2609804 12.0547059,39.8758824 12.0547059,36.9337255 C12.0547059,33.9914706 14.439902,31.6064706 17.3819608,31.6064706 C20.3240196,31.6064706 22.7092157,33.9914706 22.7092157,36.9337255 Z M20.0454902,36.9337255 C20.0454902,35.4626471 18.8529412,34.270098 17.3818627,34.270098 C15.9107843,34.270098 14.7181373,35.4626471 14.7181373,36.9337255 C14.7181373,38.4048039 15.9107843,39.597451 17.3818627,39.597451 C18.8529412,39.597451 20.0454902,38.4048039 20.0454902,36.9337255 Z M12.7936275,31.6063725 L0.856176471,31.6063725 C0.383333333,31.6063725 0,31.9897059 0,32.462549 L0,35.060098 C0,35.5329412 0.383333333,35.9162745 0.856176471,35.9162745 L10.4246078,35.9162745 C10.6744118,34.2021569 11.5396078,32.6880392 12.7936275,31.6063725 Z M50.5821569,36.9337255 C50.5821569,39.8758824 48.1969608,42.2609804 45.254902,42.2609804 C42.3127451,42.2609804 39.9276471,39.8758824 39.9276471,36.9337255 C39.9276471,33.9914706 42.3127451,31.6064706 45.254902,31.6064706 C48.1969608,31.6063725 50.5821569,33.9914706 50.5821569,36.9337255 Z M47.9186275,36.9337255 C47.9186275,35.4626471 46.7259804,34.270098 45.254902,34.270098 C43.7837255,34.270098 42.5912745,35.4626471 42.5912745,36.9337255 C42.5912745,38.4048039 43.7838235,39.597451 45.254902,39.597451 C46.7259804,39.597451 47.9186275,38.4048039 47.9186275,36.9337255 Z M60,32.462549 L60,35.060098 C60,35.5329412 59.6166667,35.9162745 59.1438235,35.9162745 L52.2120588,35.9162745 C51.7162745,32.5159804 48.789902,29.8940196 45.255098,29.8940196 C41.7196078,29.8940196 38.7931373,32.5160784 38.2973529,35.9162745 L24.3393137,35.9162745 C24.0894118,34.2022549 23.2243137,32.6880392 21.9702941,31.6063725 L35.205,31.6063725 L35.205,7.11705882 C35.205,6.17137255 35.9716667,5.40470588 36.9173529,5.40470588 L45.0001961,5.40470588 C47.2760784,5.40470588 49.4032353,6.53519608 50.6766667,8.42137255 L55.887451,16.1391176 C56.6517647,17.2711765 57.0601961,18.6058824 57.0601961,19.9718627 L57.0601961,31.6063725 L59.1438235,31.6063725 C59.6166667,31.6063725 60,31.9897059 60,32.462549 Z M51.3145098,16.3367647 L47.1477451,10.4158824 C46.9873529,10.1880392 46.7261765,10.052451 46.447549,10.052451 L39.9480392,10.052451 C39.4752941,10.052451 39.0918627,10.4357843 39.0918627,10.9086275 L39.0918627,16.8295098 C39.0918627,17.302451 39.4751961,17.6856863 39.9480392,17.6856863 L50.6145098,17.6856863 C51.3080392,17.6856863 51.7137255,16.9040196 51.3145098,16.3367647 Z" id="Shape"></path>
            </g>
        </g>
    </g>
</svg>