<?xml version="1.0" ?><svg id="Layer_1" style="enable-background:new 0 0 128 128;" version="1.1" viewBox="0 0 128 128" xml:space="preserve" xmlns="http://www.w3.org/2000/svg" xmlns:xlink="http://www.w3.org/1999/xlink"><style type="text/css">
	.st0{fill:#60646B;}
</style><g><path class="st0" d="M120.8,107h-2V45.5c0-2.7-2.2-4.9-4.9-4.9H87.4c-2.7,0-4.8,2.2-4.8,4.9V107h-4.4V35.1L64,23.6L48.9,35.1V107   h-4.4V45.5c0-2.7-2.2-4.9-4.9-4.9H13.2c-2.7,0-4.8,2.2-4.8,4.9V107H7.2v10h113.5v-10H120.8z M98.1,92.2v10.3H87.7V92.2H98.1z    M87.7,87V76.7H98V87H87.7z M103.2,46.1h10.3v10.3h-10.3V46.1z M103.2,61.3h10.3v10.3h-10.3V61.3z M103.2,76.7h10.3V87h-10.3V76.7z    M103.2,92.2h10.3v10.3h-10.3V92.2z M87.7,46.1H98v10.3H87.7V46.1z M87.7,61.3H98v10.3H87.7V61.3z M29,46.1h10.3v10.3H29V46.1z    M29,61.3h10.3v10.3H29V61.3z M29,76.7h10.3V87H29V76.7z M29,92.2h10.3v10.3H29V92.2z M13.5,46.1h10.3v10.3H13.5V46.1z M13.5,61.3   h10.3v10.3H13.5V61.3z M13.5,76.7h10.3V87H13.5V76.7z M13.5,92.2h10.3v10.3H13.5V92.2z M59.3,78.9h9.5V107h-9.5   C59.3,107,59.3,78.9,59.3,78.9z"/><path class="st0" d="M78.2,31.4c0-1.3,0.1-2.5,0.1-3.8C73.5,23.7,68.8,19.9,64,16c-4.8,4-10.6,8.1-15.4,12.1c0,1.4,0,2.3,0,3.8   c4.8-4.1,10.5-8.1,15.3-12.1C68.7,23.7,73.5,27.5,78.2,31.4z"/></g></svg>