<?xml version="1.0" encoding="UTF-8"?>
<svg width="17px" height="19px" viewBox="0 0 17 19" version="1.1" xmlns="http://www.w3.org/2000/svg" xmlns:xlink="http://www.w3.org/1999/xlink">
    <!-- Generator: Sketch 44.1 (41455) - http://www.bohemiancoding.com/sketch -->
    <title>2592</title>
    <desc>Created with Sketch.</desc>
    <defs></defs>
    <g id="Page-1" stroke="none" stroke-width="1" fill="none" fill-rule="evenodd">
        <g id="2592" fill-rule="nonzero" fill="#FFFFFF">
            <path d="M8.5,2 C10.109,2 11.62,2.614 12.754,3.73 C13.879,4.837 14.5,6.309 14.5,7.87 C14.5,9.431 13.88,10.9 12.755,12.009 L8.5,16.193 L4.246,12.007 C3.121,10.9 2.501,9.431 2.501,7.868 C2.501,6.305 3.121,4.836 4.246,3.727 C5.38,2.614 6.892,2 8.5,2 L8.5,2 Z M8.5,0 C6.453,0 4.404,0.768 2.843,2.305 C-0.281,5.379 -0.281,10.362 2.843,13.436 L8.5,18.999 L14.157,13.434 C17.281,10.362 17.281,5.378 14.157,2.305 C12.596,0.768 10.548,0 8.5,0 Z" id="Shape"></path>
            <path d="M8.5,5.499 C9.168,5.499 9.796,5.759 10.268,6.23 C11.244,7.206 11.244,8.792 10.268,9.767 C9.795,10.239 9.168,10.498 8.5,10.498 C7.832,10.498 7.205,10.238 6.732,9.767 C5.756,8.791 5.756,7.205 6.732,6.23 C7.205,5.759 7.833,5.499 8.5,5.499 L8.5,5.499 Z M8.5,4.499 C7.604,4.499 6.708,4.841 6.025,5.523 C4.658,6.89 4.658,9.107 6.025,10.474 C6.709,11.158 7.603,11.498 8.5,11.498 C9.397,11.498 10.292,11.156 10.975,10.474 C12.341,9.107 12.341,6.89 10.975,5.523 C10.292,4.84 9.396,4.499 8.5,4.499 Z" id="Shape"></path>
        </g>
    </g>
</svg>