<?xml version="1.0" encoding="UTF-8"?>
<svg width="980px" height="958px" viewBox="0 0 980 958" version="1.1" xmlns="http://www.w3.org/2000/svg" xmlns:xlink="http://www.w3.org/1999/xlink">
    <!-- Generator: Sketch 44.1 (41455) - http://www.bohemiancoding.com/sketch -->
    <title>ic_customer</title>
    <desc>Created with Sketch.</desc>
    <defs></defs>
    <g id="Page-1" stroke="none" stroke-width="1" fill="none" fill-rule="evenodd">
        <g id="ic_customer" fill-rule="nonzero">
            <path d="M253.6,762.2 C252.3,769.1 251.5,775.9 251.2,782.6 C250.9,789.2 250.4,795.4 249.7,801.1 C249.1,802.4 248.4,803.5 247.8,804.4 C247.2,805.3 246.5,806.5 245.9,807.7 C220.6,805.8 195.1,803.6 169.2,801.1 C143.3,798.6 119.5,795.7 97.8,792.6 C76.1,789.4 57.8,786.3 42.9,783.1 C28,779.9 18.6,776.8 14.7,773.6 C8.9,769.2 4.5,755.9 1.6,733.8 C-1.3,711.7 -0.2,683 5,647.6 C8.2,628 16.5,613 29.8,602.6 C43,592.2 58.7,584 76.8,578 C94.9,572 113.5,566.5 132.6,561.4 C151.7,556.3 168.7,549.4 183.6,540.6 C195.3,533 204.2,526.1 210.3,519.8 C216.4,513.5 220.8,507 223.4,500.4 C226,493.8 227.3,487 227.3,480 C227.3,473.1 227,465.5 226.3,457.3 C225,444.7 220.6,434.7 213.2,427.5 C205.8,420.2 197.5,412.8 188.4,405.2 C183.2,402 178.9,397 175.3,390 C171.7,383.1 168.7,376.1 166.1,369.2 C163.5,361.6 160.9,353.1 158.3,343.6 C154.4,342.3 150.5,340.4 146.6,337.9 C143.4,335.4 140,331.6 136.4,326.5 C132.8,321.4 129.4,314.5 126.2,305.7 C123,296.9 121.7,288.5 122.3,280.6 C122.9,272.7 124.6,265.9 127.2,260.2 C129.8,253.3 133.3,247.6 137.9,243.2 C137.3,223 138.2,202.5 140.8,181.6 C143.4,164.5 147.6,146.2 153.4,126.7 C159.2,107.1 168,89.4 179.6,73.7 C190,58.5 201.6,46.2 214.6,36.8 C227.5,27.3 240.7,19.9 253.9,14.5 C267.2,9.1 280.6,5.5 294.2,3.6 C307.8,1.7 321.1,0.8 334,0.8 C366.4,0.8 395.5,7.4 421.4,20.7 C447.3,34 466.7,48.2 479.7,63.3 C488.1,74 493.5,84 495.7,93.1 C498,102.3 501,112.8 504.9,124.8 C492.6,131.7 479.5,142 465.6,155.6 C451.7,169.2 439.5,182.9 429.2,196.8 C416.3,214.5 406.5,234.1 400.1,255.5 C393.6,277 388.8,296.9 385.5,315.2 C382.3,337.3 380.6,359.4 380.6,381.5 C375.4,387.2 371.5,393.5 368.9,400.4 C366.3,406.7 364.7,414.1 364,422.7 C363.4,431.2 364.6,440.5 367.9,450.6 C371.1,461.3 374.7,469.5 378.6,475.2 C382.5,480.9 386,485.3 389.3,488.5 C393.2,492.3 397.1,494.8 401,496.1 C403.6,506.2 406.2,515.7 408.8,524.5 C411.4,532.1 414.5,539.8 418,547.7 C421.6,555.6 425.9,561.4 431.1,565.2 C435.6,569 439.2,572.1 441.8,574.7 C444.4,577.2 446.5,579.6 448.1,581.8 C449.7,584 450.7,587 451,590.8 C451.3,594.6 452.1,599.6 453.4,606 C452.1,612.9 450.5,618.3 448.5,622.1 C446.6,625.9 442,630 434.9,634.4 C418.1,644.5 399.9,652.7 380.5,659 C361.1,665.3 342.5,672.3 324.7,679.8 C306.9,687.4 291.4,697.3 278.1,709.6 C265.1,721.9 256.8,739.5 253.6,762.2 Z" id="Shape" fill="#1563BD"></path>
            <path d="M977.1,887.2 C975.2,898.6 972.2,907.1 968.4,912.8 C965.8,916.6 958.2,920.4 945.6,924.2 C933,928 917.3,931.5 898.5,934.6 C879.7,937.8 859,940.8 836.3,943.6 C813.6,946.4 790.8,948.8 767.8,950.7 C744.8,952.6 722.6,954.2 701.3,955.4 C680,956.6 661.2,957.3 645,957.3 C628.8,957.3 610.2,956.7 589.2,955.4 C568.2,954.1 546.3,952.6 523.6,950.7 C500.9,948.8 478.6,946.8 456.6,944.5 C434.6,942.3 414.4,939.8 395.9,936.9 C377.4,934.1 361.9,931.2 349.3,928.4 C336.7,925.6 328.7,922.9 325.5,920.3 C320.3,915.9 316.1,902.6 312.9,880.5 C309.7,858.4 310.6,830 315.8,795.3 C319,775.1 327.3,759.9 340.6,749.8 C353.9,739.7 369.6,731.5 387.7,725.2 C405.8,718.9 424.4,713.4 443.5,708.6 C462.6,703.9 479.6,696.8 494.5,687.3 C506.2,679.7 515.1,672.8 521.2,666.5 C527.4,660.2 531.9,653.9 534.8,647.6 C537.7,641.3 539.2,634.7 539.2,627.7 C539.2,620.8 538.9,612.9 538.2,604 C536.9,591.4 532.4,581.4 524.6,574.2 C516.8,566.9 508.4,559.8 499.3,552.9 C494.8,549.1 490.7,543.7 487.2,536.8 C483.6,529.9 480.6,522.9 478,516 C475.4,508.4 472.8,499.9 470.2,490.4 C466.3,489.1 462.4,487.2 458.5,484.7 C455.3,482.2 451.9,478.4 448.3,473.3 C444.7,468.3 441.3,461.3 438.1,452.5 C434.9,443.7 433.6,435.3 434.2,427.4 C434.8,419.5 436.5,413 439.1,408 C441.7,401.7 445.3,396 449.8,391 C449.2,370.8 450.1,350.3 452.7,329.4 C455.3,311.7 459.3,293.2 464.8,274 C470.3,254.7 478.9,236.9 490.5,220.5 C500.9,205.3 512.5,193 525.5,183.6 C538.5,174.1 551.7,166.7 565.3,161.3 C578.9,155.9 592.5,152.3 606.1,150.4 C619.7,148.5 632.6,147.6 644.9,147.6 C677.9,147.6 707.4,154.2 733.3,167.5 C759.2,180.8 778.3,195 790.6,210.1 C804.8,227.1 815.4,246.2 822.2,267.4 C829,288.6 834,308.3 837.2,326.6 C840.4,348.1 841.7,369.5 841.1,391 C844.3,393.5 847.3,397 849.8,401.4 C851.7,405.2 853.5,410.1 855.1,416.1 C856.7,422.1 856.9,429.5 855.6,438.4 C854.3,449.8 851.7,458.9 847.8,465.9 C843.9,472.8 840,478.2 836.1,482 C831.6,486.4 826.4,489.3 820.6,490.5 C818,500 815.4,508.5 812.8,516.1 C810.2,523 807,530 803.1,536.9 C799.2,543.8 795,548.9 790.5,552.1 C785.3,556.5 780.6,560.3 776.4,563.5 C772.2,566.7 768.5,570 765.2,573.4 C762,576.9 759.2,580.8 756.9,585.2 C754.6,589.6 752.9,595 751.6,601.3 C750.3,609.5 749.8,617.9 750.1,626.4 C750.4,634.9 752.5,643.3 756.4,651.5 C760.3,659.7 766.6,667.6 775.3,675.2 C784,682.8 796.2,689.4 811.7,695.1 C825.3,700.8 840.4,705.7 856.9,709.8 C873.4,713.9 889.3,718.8 904.5,724.5 C919.7,730.2 933.3,737.4 945.3,746.3 C957.3,755.1 965.9,766.5 971,780.4 C973.6,789.2 975.7,800 977.3,812.6 C978.9,825.2 979.7,838 979.7,851 C980,863.7 979,875.9 977.1,887.2 Z" id="Shape" fill="#00A6F0"></path>
        </g>
    </g>
</svg>