<?xml version="1.0" encoding="UTF-8"?>
<svg width="64px" height="75px" viewBox="0 0 64 75" version="1.1" xmlns="http://www.w3.org/2000/svg" xmlns:xlink="http://www.w3.org/1999/xlink">
    <!-- Generator: Sketch 44.1 (41455) - http://www.bohemiancoding.com/sketch -->
    <title>201289</title>
    <desc>Created with Sketch.</desc>
    <defs></defs>
    <g id="Page-1" stroke="none" stroke-width="1" fill="none" fill-rule="evenodd">
        <g id="201289" fill-rule="nonzero" fill="#FFFFFF">
            <path d="M51.3959452,49.8751416 C44.520621,49.8751416 38.9271963,55.4685662 38.9271963,62.3438904 C38.9271963,69.2192146 44.5204749,74.8127854 51.3959452,74.8127854 C58.2714155,74.8127854 63.8646941,69.2193607 63.8646941,62.3440365 C63.8646941,55.4687123 58.2712694,49.8751416 51.3959452,49.8751416 Z M51.3959452,72.0419361 C46.0484384,72.0419361 41.6980457,67.6915434 41.6980457,62.3440365 C41.6980457,56.9965297 46.0484384,52.646137 51.3959452,52.646137 C56.7434521,52.646137 61.0938447,56.9965297 61.0938447,62.3440365 C61.0938447,67.6915434 56.7434521,72.0419361 51.3959452,72.0419361 Z" id="Shape"></path>
            <path d="M57.8244384,57.1233607 C57.2366027,56.633863 56.3632511,56.7130594 55.8731689,57.300895 L49.917516,64.4478539 L46.8338265,61.3644566 C46.2933333,60.8232329 45.4153059,60.8232329 44.8748128,61.3644566 C44.333589,61.905242 44.333589,62.7826849 44.8748128,63.3234703 L49.0310137,67.4796712 C49.2913973,67.7400548 49.6438356,67.885589 50.0105936,67.885589 C50.0314886,67.885589 50.0525297,67.8852968 50.0734247,67.884274 C50.4621005,67.8667397 50.8256438,67.6859909 51.0749224,67.387032 L58.0019726,59.074484 C58.4917626,58.4867945 58.412274,57.6134429 57.8244384,57.1233607 Z" id="Shape"></path>
            <path d="M51.3959452,0 L1.52065753,0 C0.755579909,0 0.135159817,0.620273973 0.135159817,1.38549772 L0.135159817,70.6565845 C0.135159817,71.1558721 0.403726027,71.6161461 0.837990868,71.8620639 C1.27167123,72.108274 1.80500457,72.1015525 2.23327854,71.8445297 L8.36178995,68.1675982 L13.1579909,71.7650411 C13.6089132,72.1033059 14.2196895,72.1344292 14.7020274,71.8445297 L20.8305388,68.1675982 L25.6267397,71.7650411 C25.8723653,71.9490046 26.1644566,72.0420822 26.4581553,72.0420822 C26.7040731,72.0420822 26.9510137,71.9767671 27.1707763,71.8445297 L34.0978265,67.6883288 C34.7540457,67.2946849 34.9667945,66.4435434 34.5730046,65.7877626 C34.1793607,65.1319817 33.3279269,64.9187945 32.6724384,65.3125845 L26.5439269,68.989516 L21.747726,65.3920731 C21.2962192,65.0538082 20.6860274,65.0223927 20.2036895,65.3125845 L14.0751781,68.989516 L9.27897717,65.3920731 C8.82747032,65.0538082 8.21727854,65.0223927 7.73494064,65.3125845 L2.90615525,68.2096804 L2.90615525,2.77084932 L50.0104475,2.77084932 L50.0104475,45.7189406 C50.0104475,46.4840183 50.6307215,47.1042922 51.3957991,47.1042922 C52.1608767,47.1042922 52.7812968,46.4840183 52.7812968,45.7189406 L52.7812968,1.38549772 C52.7812968,0.620273973 52.1610228,0 51.3959452,0 Z" id="Shape"></path>
            <path d="M15.3749041,12.4687489 L8.44785388,12.4687489 C7.68277626,12.4687489 7.06235616,13.0890228 7.06235616,13.8542466 C7.06235616,14.6194703 7.68263014,15.2397443 8.44785388,15.2397443 L15.3749041,15.2397443 C16.1399817,15.2397443 16.7602557,14.6194703 16.7602557,13.8542466 C16.7602557,13.0890228 16.1399817,12.4687489 15.3749041,12.4687489 Z" id="Shape"></path>
            <path d="M41.6978995,19.3959452 L34.7708493,19.3959452 C34.0057717,19.3959452 33.3854977,20.0162192 33.3854977,20.7814429 C33.3854977,21.5466667 34.0057717,22.1667945 34.7708493,22.1667945 L41.6978995,22.1667945 C42.4629772,22.1667945 43.0833973,21.5465205 43.0833973,20.7814429 C43.0833973,20.0163653 42.4631233,19.3959452 41.6978995,19.3959452 Z" id="Shape"></path>
            <path d="M41.6978995,26.3229954 L34.7708493,26.3229954 C34.0057717,26.3229954 33.3854977,26.9432694 33.3854977,27.7084932 C33.3854977,28.4737169 34.0057717,29.0938447 34.7708493,29.0938447 L41.6978995,29.0938447 C42.4629772,29.0938447 43.0833973,28.4735708 43.0833973,27.7084932 C43.0833973,26.9434155 42.4631233,26.3229954 41.6978995,26.3229954 Z" id="Shape"></path>
            <path d="M41.6978995,33.2501918 L34.7708493,33.2501918 C34.0057717,33.2501918 33.3854977,33.8704658 33.3854977,34.6356895 C33.3854977,35.4009132 34.0057717,36.0210411 34.7708493,36.0210411 L41.6978995,36.0210411 C42.4629772,36.0210411 43.0833973,35.4007671 43.0833973,34.6356895 C43.0833973,33.8706119 42.4631233,33.2501918 41.6978995,33.2501918 Z" id="Shape"></path>
            <path d="M41.6978995,40.177242 L34.7708493,40.177242 C34.0057717,40.177242 33.3854977,40.797516 33.3854977,41.5627397 C33.3854977,42.3279635 34.0057717,42.9480913 34.7708493,42.9480913 L41.6978995,42.9480913 C42.4629772,42.9480913 43.0833973,42.3278174 43.0833973,41.5627397 C43.0833973,40.7976621 42.4631233,40.177242 41.6978995,40.177242 Z" id="Shape"></path>
            <path d="M41.6978995,47.1042922 L34.7708493,47.1042922 C34.0057717,47.1042922 33.3854977,47.7245662 33.3854977,48.48979 C33.3854977,49.2550137 34.0057717,49.8751416 34.7708493,49.8751416 L41.6978995,49.8751416 C42.4629772,49.8751416 43.0833973,49.2548676 43.0833973,48.48979 C43.0833973,47.7247123 42.4631233,47.1042922 41.6978995,47.1042922 Z" id="Shape"></path>
            <path d="M27.8437991,19.3959452 L8.44785388,19.3959452 C7.68277626,19.3959452 7.06235616,20.0162192 7.06235616,20.7814429 C7.06235616,21.5466667 7.68263014,22.1667945 8.44785388,22.1667945 L27.8437991,22.1667945 C28.6088767,22.1667945 29.2292968,21.5465205 29.2292968,20.7814429 C29.2292968,20.0163653 28.6088767,19.3959452 27.8437991,19.3959452 Z" id="Shape"></path>
            <path d="M27.8437991,26.3229954 L8.44785388,26.3229954 C7.68277626,26.3229954 7.06235616,26.9432694 7.06235616,27.7084932 C7.06235616,28.4737169 7.68263014,29.0938447 8.44785388,29.0938447 L27.8437991,29.0938447 C28.6088767,29.0938447 29.2292968,28.4735708 29.2292968,27.7084932 C29.2292968,26.9434155 28.6088767,26.3229954 27.8437991,26.3229954 Z" id="Shape"></path>
            <path d="M27.8437991,33.2501918 L8.44785388,33.2501918 C7.68277626,33.2501918 7.06235616,33.8704658 7.06235616,34.6356895 C7.06235616,35.4009132 7.68263014,36.0210411 8.44785388,36.0210411 L27.8437991,36.0210411 C28.6088767,36.0210411 29.2292968,35.4007671 29.2292968,34.6356895 C29.2292968,33.8706119 28.6088767,33.2501918 27.8437991,33.2501918 Z" id="Shape"></path>
            <path d="M27.8437991,40.177242 L8.44785388,40.177242 C7.68277626,40.177242 7.06235616,40.797516 7.06235616,41.5627397 C7.06235616,42.3279635 7.68263014,42.9480913 8.44785388,42.9480913 L27.8437991,42.9480913 C28.6088767,42.9480913 29.2292968,42.3278174 29.2292968,41.5627397 C29.2292968,40.7976621 28.6088767,40.177242 27.8437991,40.177242 Z" id="Shape"></path>
            <path d="M27.8437991,47.1042922 L8.44785388,47.1042922 C7.68277626,47.1042922 7.06235616,47.7245662 7.06235616,48.48979 C7.06235616,49.2550137 7.68263014,49.8751416 8.44785388,49.8751416 L27.8437991,49.8751416 C28.6088767,49.8751416 29.2292968,49.2548676 29.2292968,48.48979 C29.2292968,47.7247123 28.6088767,47.1042922 27.8437991,47.1042922 Z" id="Shape"></path>
        </g>
    </g>
</svg>