<?xml version="1.0" encoding="UTF-8"?>
<svg width="60px" height="60px" viewBox="0 0 60 60" version="1.1" xmlns="http://www.w3.org/2000/svg" xmlns:xlink="http://www.w3.org/1999/xlink">
    <!-- Generator: Sketch 41.2 (35397) - http://www.bohemiancoding.com/sketch -->
    <title>134951</title>
    <desc>Created with Sketch.</desc>
    <defs></defs>
    <g id="Page-1" stroke="none" stroke-width="1" fill="none" fill-rule="evenodd">
        <g id="134951">
            <g id="Group">
                <g transform="translate(0.000000, 5.000000)" id="Shape">
                    <path d="M52.475,41.944 C50.577,38.357 43.576,34.254 43.576,34.254 C41.992,33.351 40.081,33.25 39.177,34.86 C39.177,34.86 36.903,37.588 36.324,37.98 C33.681,39.771 31.233,39.702 28.762,37.23 L23.019,31.487 L17.276,25.744 C14.804,23.272 14.735,20.825 16.526,18.182 C16.918,17.603 19.646,15.329 19.646,15.329 C21.255,14.425 21.155,12.514 20.252,10.93 C20.252,10.93 16.149,3.929 12.562,2.031 C11.036,1.223 9.162,1.505 7.941,2.726 L5.404,5.263 C-2.641,13.308 1.32,22.392 9.365,30.437 L16.718,37.79 L24.071,45.143 C32.116,53.188 41.2,57.15 49.245,49.104 L51.782,46.567 C53.001,45.345 53.283,43.47 52.475,41.944 Z" fill="#067AAD"></path>
                    <path d="M39.654,54.51 C38.6,54.51 37.526,54.383 36.43,54.13 C32.298,53.175 27.901,50.389 23.362,45.849 L8.657,31.142 C-1.336,21.15 -2.706,11.957 4.695,4.555 L7.232,2.018 C8.773,0.476 11.099,0.127 13.028,1.146 C16.824,3.154 20.94,10.127 21.113,10.423 C21.847,11.71 22.077,13.031 21.766,14.154 C21.532,14.999 20.998,15.686 20.22,16.15 C19,17.17 17.574,18.435 17.351,18.745 C15.748,21.109 15.937,22.992 17.982,25.037 L29.468,36.523 C31.511,38.566 33.392,38.756 35.763,37.152 C36.068,36.931 37.333,35.506 38.355,34.285 C38.818,33.507 39.506,32.973 40.35,32.739 C41.474,32.426 42.795,32.657 44.071,33.385 C44.378,33.565 51.351,37.682 53.359,41.477 L53.359,41.477 C54.379,43.403 54.028,45.732 52.487,47.273 L49.95,49.81 C46.823,52.936 43.371,54.51 39.654,54.51 Z M10.717,2.569 C9.959,2.569 9.213,2.865 8.647,3.431 L6.11,5.968 C-0.458,12.537 0.875,20.531 10.072,29.728 L24.777,44.434 C33.974,53.632 41.968,54.963 48.537,48.395 L51.074,45.858 C51.99,44.942 52.198,43.557 51.593,42.412 L51.593,42.412 C50.145,39.676 44.95,36.218 43.072,35.116 C42.296,34.673 41.472,34.507 40.887,34.666 C40.527,34.767 40.253,34.99 40.051,35.35 L39.947,35.501 C39.236,36.354 37.514,38.382 36.887,38.808 C33.737,40.941 30.767,40.649 28.056,37.938 L16.568,26.451 C13.856,23.74 13.563,20.768 15.697,17.62 C16.122,16.993 18.152,15.271 19.005,14.559 L19.155,14.455 C19.515,14.253 19.739,13.979 19.839,13.619 C20.002,13.031 19.831,12.21 19.382,11.423 C19.349,11.366 15.387,4.655 12.093,2.912 C11.656,2.682 11.183,2.569 10.717,2.569 Z" fill="#50B8E6"></path>
                </g>
                <path d="M39.998,48.508 C39.964,48.508 39.929,48.506 39.894,48.503 C32.999,47.787 28.485,43.406 28.295,43.22 C27.902,42.833 27.898,42.201 28.284,41.808 C28.67,41.413 29.303,41.408 29.698,41.795 C29.739,41.835 33.925,45.872 40.1,46.513 C40.649,46.571 41.048,47.062 40.992,47.612 C40.938,48.125 40.504,48.508 39.998,48.508 Z" id="Shape" fill="#00A6F0"></path>
                <path d="M17.996,32.508 C17.772,32.508 17.548,32.433 17.361,32.279 C17.132,32.091 11.723,27.564 11.002,20.611 C10.945,20.061 11.345,19.57 11.894,19.512 C12.446,19.463 12.935,19.855 12.993,20.404 C13.628,26.524 18.585,30.695 18.635,30.736 C19.06,31.089 19.12,31.718 18.769,32.144 C18.569,32.384 18.284,32.508 17.996,32.508 Z" id="Shape" fill="#00A6F0"></path>
                <g transform="translate(26.000000, 0.000000)" id="Shape" fill="#EFCE4A">
                    <path d="M1.362,0.487 C0.809,0.487 0.362,0.934 0.362,1.487 C0.362,2.04 0.809,2.487 1.362,2.487 C18.254,2.487 31.997,16.23 31.997,33.122 C31.997,33.675 32.444,34.122 32.997,34.122 C33.55,34.122 33.997,33.675 33.997,33.122 C33.997,15.127 19.357,0.487 1.362,0.487 Z"></path>
                    <path d="M1.362,7.517 C0.809,7.517 0.362,7.964 0.362,8.517 C0.362,9.07 0.809,9.517 1.362,9.517 C14.378,9.517 24.966,20.106 24.966,33.121 C24.966,33.674 25.413,34.121 25.966,34.121 C26.519,34.121 26.966,33.674 26.966,33.121 C26.967,19.004 15.48,7.517 1.362,7.517 Z"></path>
                    <path d="M1.362,14.547 C0.809,14.547 0.362,14.994 0.362,15.547 C0.362,16.1 0.809,16.547 1.362,16.547 C10.502,16.547 17.937,23.983 17.937,33.122 C17.937,33.675 18.384,34.122 18.937,34.122 C19.49,34.122 19.937,33.675 19.937,33.122 C19.937,22.88 11.604,14.547 1.362,14.547 Z"></path>
                </g>
            </g>
        </g>
    </g>
</svg>