<?xml version="1.0" encoding="UTF-8"?>
<svg width="64px" height="55px" viewBox="0 0 64 55" version="1.1" xmlns="http://www.w3.org/2000/svg" xmlns:xlink="http://www.w3.org/1999/xlink">
    <!-- Generator: Sketch 44.1 (41455) - http://www.bohemiancoding.com/sketch -->
    <title>25424</title>
    <desc>Created with Sketch.</desc>
    <defs></defs>
    <g id="Page-1" stroke="none" stroke-width="1" fill="none" fill-rule="evenodd">
        <g id="25424" fill-rule="nonzero" fill="#FFFFFF">
            <path d="M59.42075,4.493625 C56.398875,1.542875 52.223875,0.068125 46.893875,0.068125 C45.418875,0.068125 43.9135,0.323875 42.37925,0.835125 C40.844375,1.34675 39.4165,2.037 38.09725,2.905375 C36.77625,3.7735 35.641,4.58875 34.688625,5.349875 C33.737375,6.11125 32.833,6.920375 31.976625,7.776625 C31.119875,6.920375 30.21575,6.11125 29.264375,5.349875 C28.312375,4.58875 27.176625,3.774 25.855875,2.905375 C24.535375,2.036625 23.10775,1.346875 21.57325,0.835125 C20.038875,0.324 18.53375,0.068125 17.05875,0.068125 C11.729125,0.068125 7.553875,1.54325 4.532375,4.493625 C1.510875,7.44375 0,11.53575 0,16.77 C0,18.364125 0.28,20.006375 0.838875,21.69475 C1.39775,23.384 2.034625,24.823625 2.74825,26.013 C3.46175,27.20225 4.270875,28.362 5.175,29.49225 C6.079125,30.622375 6.739875,31.40125 7.15575,31.8295 C7.572,32.25775 7.89925,32.567375 8.137125,32.757875 L30.40625,54.24225 C30.834625,54.6705 31.358,54.88525 31.9765,54.88525 C32.595,54.88525 33.11875,54.6705 33.546875,54.24225 L55.780625,32.8285 C61.229125,27.381 63.953125,22.02775 63.953125,16.7695 C63.95325,11.534875 62.4425,7.44325 59.42075,4.493625 Z M52.675625,29.474375 L31.976625,49.423875 L11.24225,29.438375 C6.793,24.99025 4.56875,20.766625 4.56875,16.7695 C4.56875,14.842625 4.8245,13.14125 5.33575,11.6665 C5.847375,10.1915 6.501625,9.019375 7.298625,8.151 C8.09575,7.282375 9.065125,6.575125 10.207125,6.0275 C11.34975,5.480375 12.467875,5.1115 13.562125,4.92125 C14.656375,4.73125 15.822,4.636125 17.059375,4.636125 C18.296375,4.636125 19.629,4.939125 21.0565,5.546 C22.48375,6.152625 23.79825,6.914 24.999625,7.829875 C26.20125,8.746375 27.23025,9.60275 28.087125,10.3995 C28.9435,11.197 29.657,11.928125 30.228125,12.594375 C30.656125,13.118 31.2395,13.37975 31.97675,13.37975 C32.71425,13.37975 33.297,13.118 33.7255,12.594375 C34.2965,11.928125 35.0105,11.196625 35.866875,10.3995 C36.723375,9.60275 37.7525,8.74675 38.953625,7.829875 C40.15525,6.914 41.46975,6.152625 42.89775,5.546 C44.32475,4.93925 45.65775,4.636125 46.894875,4.636125 C48.132,4.636125 49.29725,4.73125 50.392,4.92125 C51.486625,5.111375 52.60475,5.480375 53.747,6.0275 C54.889125,6.575 55.8585,7.28275 56.655375,8.151 C57.452375,9.019375 58.106875,10.1915 58.6185,11.6665 C59.12925,13.14125 59.385,14.842625 59.385,16.7695 C59.38475,20.766625 57.14875,25.002 52.675625,29.474375 Z" id="Shape"></path>
        </g>
    </g>
</svg>