<?xml version="1.0" encoding="UTF-8"?>
<svg width="32px" height="37px" viewBox="0 0 32 37" version="1.1" xmlns="http://www.w3.org/2000/svg" xmlns:xlink="http://www.w3.org/1999/xlink">
    <!-- Generator: Sketch 44.1 (41455) - http://www.bohemiancoding.com/sketch -->
    <title>44274</title>
    <desc>Created with Sketch.</desc>
    <defs></defs>
    <g id="Page-1" stroke="none" stroke-width="1" fill="none" fill-rule="evenodd">
        <g id="44274" fill-rule="nonzero" fill="#FFFFFF">
            <path d="M3.134,30.463 C3.134,29.137 3.832,28.377 5.113,28.377 C6.394,28.377 7.092,29.137 7.092,30.463 L7.092,34.777 C7.092,36.101 6.394,36.863 5.113,36.863 C3.834,36.863 3.134,36.101 3.134,34.777 L3.134,30.463 Z M4.438,34.859 C4.438,35.456 4.7,35.677 5.114,35.677 C5.528,35.677 5.79,35.452 5.79,34.859 L5.79,30.38 C5.79,29.788 5.528,29.564 5.114,29.564 C4.7,29.564 4.438,29.79 4.438,30.38 L4.438,34.859 Z M9.098,30.76 L9.098,36.768 L7.926,36.768 L7.926,28.471 L9.562,28.471 L10.899,33.438 L10.899,28.471 L12.061,28.471 L12.061,36.768 L10.722,36.768 L9.098,30.76 Z M14.837,28.471 L16.141,28.471 L16.141,35.582 L18.287,35.582 L18.287,36.768 L14.841,36.768 L14.837,28.471 L14.837,28.471 Z M18.858,28.471 L20.162,28.471 L20.162,36.768 L18.858,36.768 L18.858,28.471 Z M22.271,30.76 L22.271,36.768 L21.1,36.768 L21.1,28.471 L22.735,28.471 L24.075,33.438 L24.075,28.471 L25.234,28.471 L25.234,36.768 L23.896,36.768 L22.271,30.76 Z M27.477,31.967 L29.267,31.967 L29.267,33.154 L27.477,33.154 L27.477,35.586 L29.73,35.586 L29.73,36.773 L26.174,36.773 L26.174,28.476 L29.73,28.476 L29.73,29.664 L27.477,29.664 L27.477,31.967 Z M26.937,11.196 L26.405,11.196 C25.075,7.202 21.108,4.298 16.432,4.298 C11.758,4.298 7.789,7.202 6.459,11.196 L5.925,11.196 C4.821,11.196 3.918,12.096 3.918,13.205 L3.918,15.543 C3.918,16.647 4.82,17.55 5.925,17.55 L6.403,17.55 C8.316,24.952 16.136,27.032 16.224,27.058 L16.428,27.109 L16.629,27.06 C16.72,27.039 24.569,25.039 26.469,17.55 L26.937,17.55 C28.043,17.55 28.946,16.65 28.946,15.543 L28.946,13.204 C28.945,12.097 28.043,11.196 26.937,11.196 Z M23.188,20.717 L17.923,20.717 C17.668,20.254 17.177,19.94 16.61,19.94 C15.784,19.94 15.114,20.61 15.114,21.436 C15.114,22.264 15.784,22.932 16.61,22.932 C17.268,22.932 17.828,22.506 18.027,21.914 L22.19,21.914 C19.972,24.223 17.215,25.146 16.433,25.373 C15.067,24.965 7.657,22.369 7.657,14.133 C7.657,13.995 7.661,13.862 7.671,13.727 C9.94,13.301 12.594,12.588 13.493,11.498 C13.493,11.498 13.851,13.532 12.534,14.37 C12.534,14.37 17.204,13.653 18.044,12.218 C18.044,12.218 18.208,15.941 25.124,15.53 C24.899,17.668 24.154,19.37 23.188,20.717 Z M30.967,12.416 C30.679,5.304 24.527,0 16.432,0 C8.333,0 2.185,5.302 1.896,12.416 C1.314,12.685 0.925,13.216 0.925,13.841 L0.925,14.903 C0.925,15.805 1.734,16.512 2.766,16.512 L3.568,16.512 L3.568,15.434 L3.568,13.309 L3.568,12.622 C3.748,6.359 9.215,1.677 16.432,1.677 C23.653,1.677 29.121,6.365 29.295,12.632 L29.295,13.31 L29.295,15.435 L29.295,16.511 L30.097,16.511 C31.129,16.511 31.938,15.806 31.938,14.904 L31.938,13.842 C31.938,13.216 31.549,12.684 30.967,12.416 Z" id="Shape"></path>
        </g>
    </g>
</svg>