<?xml version="1.0" encoding="UTF-8"?>
<svg width="64px" height="64px" viewBox="0 0 64 64" version="1.1" xmlns="http://www.w3.org/2000/svg" xmlns:xlink="http://www.w3.org/1999/xlink">
    <!-- Generator: Sketch 44.1 (41455) - http://www.bohemiancoding.com/sketch -->
    <title>user_boy</title>
    <desc>Created with Sketch.</desc>
    <defs></defs>
    <g id="Page-1" stroke="none" stroke-width="1" fill="none" fill-rule="evenodd">
        <g id="user_boy" fill-rule="nonzero">
            <circle id="Oval" fill="#90DFAA" cx="32" cy="32" r="32"></circle>
            <g id="Group" transform="translate(6.047244, 42.078740)" fill="#E6E9EE">
                <path d="M51.703937,8.81889764 C45.9086614,16.7307087 36.4850394,21.9212598 25.9023622,21.9212598 C15.319685,21.9212598 5.94645669,16.7811024 0.100787402,8.81889764 C4.63622047,3.98110236 10.784252,1.41102362 15.9244094,0.100787402 C15.4708661,3.77952756 17.3858268,8.71811024 17.4362205,8.56692913 C19.3511811,4.13228346 25.8519685,3.72913386 25.8519685,3.72913386 C25.8519685,3.72913386 32.3527559,4.08188976 34.3181102,8.56692913 C34.3685039,8.66771654 36.2834646,3.77952756 35.8299213,0.100787402 C41.0204724,1.41102362 47.1685039,3.98110236 51.703937,8.81889764 Z" id="Shape"></path>
            </g>
            <path d="M39.911811,38.8031496 L39.911811,38.8031496 C39.911811,39.4582677 39.5086614,42.9354331 32.1511811,45.7574803 L31.7480315,45.7574803 C24.3905512,42.9354331 23.9874016,39.4582677 23.9874016,38.8031496 L23.9874016,38.8031496 C24.0377953,37.4929134 24.3401575,36.1826772 24.8944882,34.9732283 C26.9102362,37.2409449 29.3291339,38.7527559 31.9496063,38.7527559 C34.519685,38.7527559 36.9889764,37.2913386 39.0047244,34.9732283 C39.5590551,36.1826772 39.911811,37.4929134 39.911811,38.8031496 Z" id="Shape" fill="#FFD05B"></path>
            <path d="M36.3338583,46.9165354 L34.7212598,50.1417323 L29.1779528,50.1417323 L27.5653543,46.9165354 C29.7826772,45.9590551 31.9496063,45.807874 31.9496063,45.807874 C31.9496063,45.807874 34.1669291,45.9590551 36.3338583,46.9165354 Z" id="Shape" fill="#F1543F"></path>
            <path d="M27.4645669,63.6976378 C28.9259843,63.8992126 30.4377953,64 32,64 C33.511811,64 35.023622,63.8992126 36.5354331,63.6976378 L34.7716535,50.192126 L29.2283465,50.192126 L27.4645669,63.6976378 Z" id="Shape" fill="#FF7058"></path>
            <g id="Group" transform="translate(21.921260, 38.677165)" fill="#FFFFFF">
                <path d="M17.9905512,0.0251968504 C17.9905512,0.0251968504 18.3433071,4.05669291 10.0283465,7.13070866 C10.0283465,7.13070866 16.5291339,7.48346457 18.4944882,11.9685039 C18.5448819,12.1700787 22.3244094,2.39370079 17.9905512,0.0251968504 Z" id="Shape"></path>
                <path d="M2.06614173,0.0251968504 C-2.21732283,2.39370079 1.51181102,12.119685 1.61259843,11.9685039 C3.52755906,7.53385827 10.0787402,7.13070866 10.0787402,7.13070866 C1.71338583,4.05669291 2.06614173,0.0251968504 2.06614173,0.0251968504 Z" id="Shape"></path>
            </g>
            <path d="M39.407874,35.9811024 C37.2913386,38.2488189 34.7716535,39.7102362 31.9496063,39.7102362 C29.1275591,39.7102362 26.607874,38.2488189 24.4913386,35.9811024 C24.592126,35.6283465 24.7433071,35.2755906 24.8944882,34.9732283 C26.9102362,37.2409449 29.3291339,38.7527559 31.9496063,38.7527559 C34.5700787,38.7527559 36.9889764,37.2913386 39.0047244,34.9732283 C39.1559055,35.2755906 39.3070866,35.6283465 39.407874,35.9811024 Z" id="Shape" fill="#F9B54C"></path>
            <path d="M45.7070866,28.2708661 C44.6488189,30.0346457 43.0362205,31.0929134 41.8267717,30.8913386 C39.407874,35.376378 35.880315,38.7023622 31.9496063,38.7023622 C28.0188976,38.7023622 24.4913386,35.3259843 22.0724409,30.8913386 C20.8629921,31.0425197 19.2503937,30.0346457 18.192126,28.2708661 C16.9322835,26.2047244 16.8818898,23.9370079 18.0913386,23.1811024 C18.3937008,23.0299213 18.696063,22.9291339 19.0488189,22.9795276 C19.8551181,25.0456693 20.9637795,26.3055118 20.9637795,26.3055118 C19.8047244,19.9055118 24.5417323,19.2 23.7354331,13.0519685 C23.7354331,13.0519685 26.7086614,19.6535433 35.2251969,15.0173228 L34.5700787,16.2771654 C46.4629921,13.6062992 42.4818898,27.615748 42.3811024,27.9685039 C43.7417323,26.2551181 44.5984252,24.5417323 45.1023622,22.9795276 C45.303937,22.9795276 45.5559055,23.080315 45.7070866,23.1811024 C47.0173228,23.8866142 46.9669291,26.2047244 45.7070866,28.2708661 Z" id="Shape" fill="#FFD05B"></path>
            <path d="M38.8031496,6.4 C39.7606299,6.2992126 41.3228346,7.15590551 41.3228346,7.15590551 C37.0393701,2.26771654 30.0346457,5.39212598 30.0346457,5.39212598 C32.4031496,3.37637795 34.519685,3.57795276 34.519685,3.57795276 C24.4913386,2.06614173 22.7779528,8.06299213 22.7779528,8.06299213 C22.3244094,7.35748031 22.3244094,6.3496063 22.3748031,5.84566929 C21.6692913,7.05511811 22.4251969,9.47401575 22.4251969,9.47401575 C21.719685,7.71023622 19.2503937,8.01259843 19.2503937,8.01259843 C21.3669291,8.36535433 21.719685,9.67559055 21.719685,9.67559055 C16.4283465,11.6409449 17.3354331,17.1338583 17.3354331,17.1338583 L18.5952756,15.6220472 C17.0330709,21.6188976 21.0141732,26.2551181 21.0141732,26.2551181 C19.8551181,19.8551181 24.592126,19.1496063 23.7858268,13.0015748 C23.7858268,13.0015748 26.7590551,19.6031496 35.2755906,14.9669291 L34.6204724,16.2267717 C46.6645669,13.5055118 42.4314961,27.9685039 42.4314961,27.9685039 C46.7149606,22.5259843 46.0598425,16.9322835 46.0598425,16.9322835 L46.5637795,18.9480315 C47.9244094,9.87716535 38.8031496,6.4 38.8031496,6.4 Z" id="Shape" fill="#324A5E"></path>
        </g>
    </g>
</svg>