<?xml version="1.0" encoding="UTF-8"?>
<svg width="64px" height="64px" viewBox="0 0 64 64" version="1.1" xmlns="http://www.w3.org/2000/svg" xmlns:xlink="http://www.w3.org/1999/xlink">
    <!-- Generator: Sketch 44.1 (41455) - http://www.bohemiancoding.com/sketch -->
    <title>user_girl</title>
    <desc>Created with Sketch.</desc>
    <defs></defs>
    <g id="Page-1" stroke="none" stroke-width="1" fill="none" fill-rule="evenodd">
        <g id="user_girl" fill-rule="nonzero">
            <path d="M32,63.999875 C49.62475,63.999875 64,49.625 64,32.00025 C64,14.375125 49.625125,0.00025 32,0.00025 C14.374875,0.00025 0,14.375125 0,32.000125 C0,49.624875 14.374875,63.999875 32,63.999875 Z" id="Shape" fill="#5DDDD3"></path>
            <path d="M21.314,37.74975 C18.6455,31.0175 13.040125,24.92475 20.093625,12.652125 C22.998625,7.597625 27.436,4.264125 32.02,5.39275 C36.604,4.26425 41.041375,7.59775 43.946375,12.652125 C50.999625,24.92475 45.394625,31.0175 42.72575,37.74975 L32.020375,37.77625 L21.314375,37.74975 L21.314,37.74975 Z" id="Shape" fill="#666666"></path>
            <path d="M13.988625,48.274125 C13.653875,48.8145 12.81875,53.409875 11.895125,56.893875 C17.389875,61.336875 24.3835,63.9995 31.999625,63.9995 C39.616125,63.9995 46.609625,61.336875 52.104375,56.893875 C51.180375,53.41025 50.345375,48.814125 50.010625,48.274125 C44.869875,39.973375 36.945875,43.597 36.405625,34.09825 C36.405625,34.09825 33.856375,36.000625 31.909875,36.018 C29.96325,36.035375 27.591125,34.21825 27.591125,34.21825 C27.052125,43.70875 19.12575,39.979625 13.988625,48.274125 Z" id="Shape" fill="#FED198"></path>
            <path d="M36.543625,35.439875 C36.47975,35.0235 36.43275,34.57825 36.405625,34.0985 C36.405625,34.0985 33.856375,36.000875 31.909875,36.01825 C29.96325,36.035625 27.591125,34.2185 27.591125,34.2185 C27.563625,34.707 27.515375,35.158875 27.4495,35.58075 C27.499375,35.620125 27.548875,35.660125 27.599625,35.699125 L27.599,35.706 C27.748875,35.8365 30.0275,37.795875 31.9095,37.776125 C33.7915,37.79575 36.069875,35.836125 36.22,35.706 L36.219625,35.699125 C36.330125,35.6145 36.437375,35.527375 36.54325,35.440125 L36.543625,35.439875 Z" id="Shape" fill="#F0B97D"></path>
            <path d="M27.59925,34.2245 C27.749125,34.337625 30.02775,36.035 31.90975,36.018 C33.79175,36.035 36.070125,34.337375 36.22025,34.2245 C39.064875,32.566125 41.399,27.676625 40.872125,22.3775 C40.440625,18.03675 35.744875,24.4015 32.474375,15.44525 C27.8455,25.14175 23.449,19.406 22.94775,23.08075 C22.39525,27.129625 24.668375,32.224125 27.59925,34.22475 L27.59925,34.2245 L27.59925,34.2245 Z" id="Shape" fill="#FED198"></path>
            <path d="M23.8645,41.014 C21.063125,42.510375 15.9385,42.555625 13.988625,45.6905 C13.649,46.236375 12.7965,52.924 11.85875,56.86475 C17.3585,61.325125 24.366375,63.999625 31.99925,63.999625 C39.63275,63.999625 46.64,61.3255 52.140125,56.86475 C51.202375,52.924 50.247375,46.28825 50.01025,45.6905 C48.7155,42.424875 42.722,42.2885 39.91775,40.782625 C35.55775,56.600875 29.05925,57.67925 23.86475,41.015375 L23.86375,41.014125 L23.8645,41.014125 L23.8645,41.014 Z" id="Shape" fill="#FBB429"></path>
            <g id="Group" transform="translate(19.375000, 39.375000)" fill="#FFFFFF">
                <path d="M6.357375,0.066875 C6.175375,4.98825 7.012125,11.960375 12.534125,13.742125 C7.335375,13.9595 3.961875,6.468875 0.118875,4.507 L6.35725,0.06725 L6.35725,0.066875 L6.357375,0.066875 Z" id="Shape"></path>
                <path d="M19.0205,0.066875 C19.211375,4.98825 18.333,11.960375 12.53425,13.742125 C17.993375,13.9595 21.536,6.468875 25.57075,4.507 L19.02025,0.06725 L19.0205,0.066875 Z" id="Shape"></path>
            </g>
        </g>
    </g>
</svg>